<svg xmlns="http://www.w3.org/2000/svg" viewBox="0 0 800 380" width="800" height="380">
  <defs>
    <linearGradient id="sky3" x1="0" y1="0" x2="0" y2="1"><stop offset="0%" stop-color="#4FC3F7"/><stop offset="100%" stop-color="#B3E5FC"/></linearGradient>
    <linearGradient id="gr3" x1="0" y1="0" x2="0" y2="1"><stop offset="0%" stop-color="#66BB6A"/><stop offset="100%" stop-color="#388E3C"/></linearGradient>
  </defs>
  <rect width="800" height="380" fill="url(#sky3)"/>
  <circle cx="720" cy="75" r="52" fill="#FFD700"/>
  <circle cx="720" cy="75" r="42" fill="#FFE135"/>
  <!-- Clouds -->
  <ellipse cx="200" cy="80" rx="80" ry="38" fill="white" opacity="0.9"/>
  <ellipse cx="260" cy="65" rx="65" ry="32" fill="white" opacity="0.9"/>
  <ellipse cx="140" cy="92" rx="50" ry="28" fill="white" opacity="0.9"/>
  <ellipse cx="480" cy="55" rx="70" ry="32" fill="white" opacity="0.85"/>
  <ellipse cx="540" cy="45" rx="55" ry="26" fill="white" opacity="0.85"/>
  <!-- Grass -->
  <rect x="0" y="260" width="800" height="120" fill="url(#gr3)"/>
  <!-- Field lines -->
  <line x1="0" y1="280" x2="800" y2="280" stroke="white" stroke-width="2" opacity="0.4"/>
  <ellipse cx="400" cy="280" rx="100" ry="40" fill="none" stroke="white" stroke-width="2" opacity="0.4"/>
  <!-- Goal in background -->
  <rect x="80" y="165" width="150" height="95" fill="none" stroke="white" stroke-width="5" opacity="0.8"/>
  <line x1="80" y1="260" x2="100" y2="290" stroke="white" stroke-width="4" opacity="0.5"/>
  <line x1="230" y1="260" x2="210" y2="290" stroke="white" stroke-width="4" opacity="0.5"/>
  <!-- Goal net lines -->
  <line x1="105" y1="165" x2="105" y2="260" stroke="white" stroke-width="1" opacity="0.3"/>
  <line x1="130" y1="165" x2="130" y2="260" stroke="white" stroke-width="1" opacity="0.3"/>
  <line x1="155" y1="165" x2="155" y2="260" stroke="white" stroke-width="1" opacity="0.3"/>
  <line x1="180" y1="165" x2="180" y2="260" stroke="white" stroke-width="1" opacity="0.3"/>
  <line x1="205" y1="165" x2="205" y2="260" stroke="white" stroke-width="1" opacity="0.3"/>
  <line x1="80" y1="190" x2="230" y2="190" stroke="white" stroke-width="1" opacity="0.3"/>
  <line x1="80" y1="215" x2="230" y2="215" stroke="white" stroke-width="1" opacity="0.3"/>
  <line x1="80" y1="240" x2="230" y2="240" stroke="white" stroke-width="1" opacity="0.3"/>
  <!-- Soccer ball shadow -->
  <ellipse cx="420" cy="295" rx="65" ry="20" fill="#2E7D32" opacity="0.4"/>
  <!-- Soccer ball -->
  <circle cx="420" cy="265" r="62" fill="white" stroke="#333" stroke-width="2"/>
  <!-- Pentagon pattern -->
  <polygon points="420,215 445,232 436,260 404,260 395,232" fill="#222"/>
  <polygon points="480,237 500,257 493,283 465,283 457,257" fill="#222"/>
  <polygon points="360,237 382,257 375,283 347,283 339,257" fill="#222"/>
  <polygon points="448,295 468,277 493,283 488,308 463,315" fill="#222"/>
  <polygon points="392,295 372,277 347,283 352,308 377,315" fill="#222"/>
  <!-- Shine on ball -->
  <ellipse cx="395" cy="240" rx="18" ry="12" fill="white" opacity="0.5" transform="rotate(-30,395,240)"/>
</svg>