<svg xmlns="http://www.w3.org/2000/svg" viewBox="0 0 800 380" width="800" height="380">
  <defs>
    <linearGradient id="room" x1="0" y1="0" x2="0" y2="1"><stop offset="0%" stop-color="#FFF8E7"/><stop offset="100%" stop-color="#FFF0CC"/></linearGradient>
  </defs>
  <rect width="800" height="380" fill="url(#room)"/>
  <!-- Back wall -->
  <rect x="0" y="0" width="800" height="280" fill="#F5E6C8"/>
  <!-- Bookshelf left -->
  <rect x="20" y="30" width="200" height="250" rx="5" fill="#8B6914"/>
  <rect x="30" y="40" width="180" height="8" fill="#A0783F"/>
  <rect x="30" y="90" width="180" height="8" fill="#A0783F"/>
  <rect x="30" y="140" width="180" height="8" fill="#A0783F"/>
  <rect x="30" y="190" width="180" height="8" fill="#A0783F"/>
  <rect x="30" y="240" width="180" height="8" fill="#A0783F"/>
  <!-- Books on shelf 1 -->
  <rect x="35" y="48" width="22" height="42" rx="2" fill="#E53935"/>
  <rect x="58" y="52" width="18" height="38" rx="2" fill="#1E88E5"/>
  <rect x="77" y="48" width="25" height="42" rx="2" fill="#43A047"/>
  <rect x="103" y="50" width="20" height="40" rx="2" fill="#FB8C00"/>
  <rect x="124" y="48" width="22" height="42" rx="2" fill="#8E24AA"/>
  <rect x="147" y="52" width="18" height="38" rx="2" fill="#00ACC1"/>
  <rect x="166" y="48" width="24" height="42" rx="2" fill="#E53935"/>
  <!-- Books on shelf 2 -->
  <rect x="35" y="98" width="20" height="42" rx="2" fill="#5E35B1"/>
  <rect x="56" y="100" width="24" height="40" rx="2" fill="#F4511E"/>
  <rect x="81" y="98" width="18" height="42" rx="2" fill="#00897B"/>
  <rect x="100" y="100" width="26" height="40" rx="2" fill="#FFB300"/>
  <rect x="127" y="98" width="20" height="42" rx="2" fill="#D81B60"/>
  <rect x="148" y="100" width="22" height="40" rx="2" fill="#039BE5"/>
  <rect x="171" y="98" width="19" height="42" rx="2" fill="#558B2F"/>
  <!-- Books on shelf 3 -->
  <rect x="35" y="148" width="24" height="42" rx="2" fill="#F4511E"/>
  <rect x="60" y="150" width="18" height="40" rx="2" fill="#7B1FA2"/>
  <rect x="79" y="148" width="22" height="42" rx="2" fill="#0277BD"/>
  <rect x="102" y="150" width="20" height="40" rx="2" fill="#E65100"/>
  <rect x="123" y="148" width="26" height="42" rx="2" fill="#2E7D32"/>
  <rect x="150" y="150" width="18" height="40" rx="2" fill="#C62828"/>
  <rect x="169" y="148" width="21" height="42" rx="2" fill="#00838F"/>
  <!-- Bookshelf right -->
  <rect x="580" y="30" width="200" height="250" rx="5" fill="#8B6914"/>
  <rect x="590" y="40" width="180" height="8" fill="#A0783F"/>
  <rect x="590" y="90" width="180" height="8" fill="#A0783F"/>
  <rect x="590" y="140" width="180" height="8" fill="#A0783F"/>
  <rect x="590" y="190" width="180" height="8" fill="#A0783F"/>
  <rect x="590" y="240" width="180" height="8" fill="#A0783F"/>
  <!-- Books right shelf 1 -->
  <rect x="595" y="48" width="20" height="42" rx="2" fill="#1E88E5"/>
  <rect x="616" y="50" width="24" height="40" rx="2" fill="#E53935"/>
  <rect x="641" y="48" width="18" height="42" rx="2" fill="#FB8C00"/>
  <rect x="660" y="52" width="22" height="38" rx="2" fill="#43A047"/>
  <rect x="683" y="48" width="20" height="42" rx="2" fill="#8E24AA"/>
  <rect x="704" y="50" width="26" height="40" rx="2" fill="#00ACC1"/>
  <rect x="731" y="48" width="18" height="42" rx="2" fill="#FFB300"/>
  <!-- Books right shelf 2 -->
  <rect x="595" y="98" width="22" height="42" rx="2" fill="#D81B60"/>
  <rect x="618" y="100" width="18" height="40" rx="2" fill="#F4511E"/>
  <rect x="637" y="98" width="26" height="42" rx="2" fill="#039BE5"/>
  <rect x="664" y="100" width="20" height="40" rx="2" fill="#5E35B1"/>
  <rect x="685" y="98" width="22" height="42" rx="2" fill="#00897B"/>
  <rect x="708" y="100" width="18" height="40" rx="2" fill="#558B2F"/>
  <rect x="727" y="98" width="23" height="42" rx="2" fill="#C62828"/>
  <!-- Table in middle -->
  <rect x="270" y="220" width="260" height="15" rx="5" fill="#A07840"/>
  <rect x="300" y="235" width="18" height="60" rx="3" fill="#8B6914"/>
  <rect x="482" y="235" width="18" height="60" rx="3" fill="#8B6914"/>
  <!-- Open book on table -->
  <path d="M 310 218 Q 400 200 490 218 L 490 225 Q 400 210 310 225 Z" fill="#F5F5DC"/>
  <line x1="400" y1="200" x2="400" y2="225" stroke="#DDD" stroke-width="2"/>
  <!-- Chair -->
  <rect x="360" y="280" width="80" height="10" rx="3" fill="#A07840"/>
  <rect x="370" y="290" width="12" height="45" rx="2" fill="#8B6914"/>
  <rect x="418" y="290" width="12" height="45" rx="2" fill="#8B6914"/>
  <rect x="360" y="247" width="80" height="35" rx="3" fill="#D4A96A"/>
  <!-- Floor -->
  <rect x="0" y="280" width="800" height="100" fill="#C4A55A"/>
  <!-- Floor pattern -->
  <line x1="0" y1="320" x2="800" y2="320" stroke="#B8943A" stroke-width="1" opacity="0.5"/>
  <line x1="0" y1="360" x2="800" y2="360" stroke="#B8943A" stroke-width="1" opacity="0.5"/>
  <!-- Lamp -->
  <line x1="400" y1="0" x2="400" y2="80" stroke="#8B6914" stroke-width="6"/>
  <path d="M 360 80 L 440 80 L 420 115 L 380 115 Z" fill="#FFD700"/>
  <ellipse cx="400" cy="115" rx="40" ry="8" fill="#FFE135" opacity="0.7"/>
  <!-- Light cone -->
  <path d="M 380 115 L 310 220 L 490 220 L 420 115 Z" fill="#FFD700" opacity="0.12"/>
</svg>