<svg xmlns="http://www.w3.org/2000/svg" viewBox="0 0 800 380" width="800" height="380">
  <defs>
    <linearGradient id="sky2" x1="0" y1="0" x2="0" y2="1"><stop offset="0%" stop-color="#87CEEB"/><stop offset="100%" stop-color="#C8E6FF"/></linearGradient>
    <linearGradient id="soil" x1="0" y1="0" x2="0" y2="1"><stop offset="0%" stop-color="#8B5E3C"/><stop offset="100%" stop-color="#5C3A1E"/></linearGradient>
  </defs>
  <rect width="800" height="380" fill="url(#sky2)"/>
  <circle cx="700" cy="80" r="52" fill="#FFD700" opacity="0.9"/>
  <circle cx="700" cy="80" r="42" fill="#FFE135"/>
  <!-- Clouds -->
  <ellipse cx="200" cy="70" rx="75" ry="35" fill="white" opacity="0.9"/>
  <ellipse cx="255" cy="58" rx="55" ry="28" fill="white" opacity="0.9"/>
  <!-- Fence -->
  <rect x="0" y="200" width="800" height="15" fill="#C8A26A"/>
  <rect x="60" y="175" width="18" height="60" rx="3" fill="#C8A26A"/>
  <rect x="130" y="175" width="18" height="60" rx="3" fill="#C8A26A"/>
  <rect x="200" y="175" width="18" height="60" rx="3" fill="#C8A26A"/>
  <rect x="270" y="175" width="18" height="60" rx="3" fill="#C8A26A"/>
  <rect x="500" y="175" width="18" height="60" rx="3" fill="#C8A26A"/>
  <rect x="570" y="175" width="18" height="60" rx="3" fill="#C8A26A"/>
  <rect x="640" y="175" width="18" height="60" rx="3" fill="#C8A26A"/>
  <rect x="710" y="175" width="18" height="60" rx="3" fill="#C8A26A"/>
  <!-- Soil bed -->
  <rect x="0" y="215" width="800" height="165" fill="url(#soil)"/>
  <!-- Soil texture -->
  <ellipse cx="150" cy="240" rx="25" ry="8" fill="#6B4423" opacity="0.5"/>
  <ellipse cx="400" cy="250" rx="30" ry="9" fill="#6B4423" opacity="0.5"/>
  <ellipse cx="650" cy="245" rx="20" ry="7" fill="#6B4423" opacity="0.5"/>
  <!-- Tomato plants -->
  <line x1="120" y1="215" x2="120" y2="145" stroke="#2D7A2D" stroke-width="4"/>
  <circle cx="120" cy="145" r="22" fill="#3CB371"/>
  <circle cx="98" cy="162" r="16" fill="#3CB371"/>
  <circle cx="142" cy="160" r="18" fill="#3CB371"/>
  <circle cx="120" cy="140" r="12" fill="#FF3D00"/>
  <circle cx="100" cy="158" r="9" fill="#FF5722"/>
  <circle cx="138" cy="154" r="10" fill="#FF3D00"/>
  <!-- Carrot tops -->
  <line x1="320" y1="215" x2="320" y2="175" stroke="#2D7A2D" stroke-width="3"/>
  <path d="M305 175 Q320 155 335 175" fill="#2D7A2D"/>
  <path d="M310 172 Q320 148 330 172" fill="#3CB371"/>
  <path d="M320 215 L310 250 L330 250 Z" fill="#FF6B00"/>
  <line x1="420" y1="215" x2="420" y2="178" stroke="#2D7A2D" stroke-width="3"/>
  <path d="M405 178 Q420 158 435 178" fill="#2D7A2D"/>
  <path d="M420 215 L410 252 L430 252 Z" fill="#FF8C00"/>
  <!-- Sunflower -->
  <line x1="560" y1="215" x2="560" y2="110" stroke="#2D7A2D" stroke-width="5"/>
  <circle cx="560" cy="105" r="28" fill="#FFD700"/>
  <circle cx="560" cy="105" r="18" fill="#8B4513"/>
  <!-- Sunflower petals -->
  <ellipse cx="560" cy="74" rx="10" ry="18" fill="#FFD700"/>
  <ellipse cx="560" cy="136" rx="10" ry="18" fill="#FFD700"/>
  <ellipse cx="529" cy="105" rx="18" ry="10" fill="#FFD700"/>
  <ellipse cx="591" cy="105" rx="18" ry="10" fill="#FFD700"/>
  <ellipse cx="539" cy="84" rx="10" ry="18" fill="#FFD700" transform="rotate(45,539,84)"/>
  <ellipse cx="581" cy="84" rx="10" ry="18" fill="#FFD700" transform="rotate(-45,581,84)"/>
  <ellipse cx="539" cy="126" rx="10" ry="18" fill="#FFD700" transform="rotate(-45,539,126)"/>
  <ellipse cx="581" cy="126" rx="10" ry="18" fill="#FFD700" transform="rotate(45,581,126)"/>
  <!-- Watering can -->
  <rect x="680" y="200" width="50" height="35" rx="5" fill="#4FC3F7"/>
  <path d="M730 208 Q760 200 765 215 L755 220 Q750 210 730 215 Z" fill="#4FC3F7"/>
  <path d="M680 195 L710 195" stroke="#4FC3F7" stroke-width="8" stroke-linecap="round"/>
  <!-- Water drops -->
  <circle cx="758" cy="225" r="3" fill="#4FC3F7" opacity="0.7"/>
  <circle cx="765" cy="232" r="2" fill="#4FC3F7" opacity="0.7"/>
  <circle cx="760" cy="240" r="2" fill="#4FC3F7" opacity="0.7"/>
</svg>