<svg xmlns="http://www.w3.org/2000/svg" viewBox="0 0 800 380" width="800" height="380">
  <defs>
    <linearGradient id="kitchen" x1="0" y1="0" x2="0" y2="1"><stop offset="0%" stop-color="#FFF9F0"/><stop offset="100%" stop-color="#FFF0D4"/></linearGradient>
  </defs>
  <rect width="800" height="380" fill="url(#kitchen)"/>
  <!-- Wall -->
  <rect x="0" y="0" width="800" height="240" fill="#E8D5B0"/>
  <!-- Window -->
  <rect x="500" y="40" width="240" height="175" rx="8" fill="#87CEEB"/>
  <!-- Rain outside window -->
  <rect x="510" y="50" width="220" height="155" rx="5" fill="#9BBDCC"/>
  <!-- Raindrops -->
  <line x1="530" y1="60" x2="525" y2="85" stroke="#6A9AB5" stroke-width="2" opacity="0.7"/>
  <line x1="560" y1="55" x2="555" y2="80" stroke="#6A9AB5" stroke-width="2" opacity="0.7"/>
  <line x1="590" y1="65" x2="585" y2="90" stroke="#6A9AB5" stroke-width="2" opacity="0.7"/>
  <line x1="620" y1="58" x2="615" y2="83" stroke="#6A9AB5" stroke-width="2" opacity="0.7"/>
  <line x1="650" y1="62" x2="645" y2="87" stroke="#6A9AB5" stroke-width="2" opacity="0.7"/>
  <line x1="680" y1="55" x2="675" y2="80" stroke="#6A9AB5" stroke-width="2" opacity="0.7"/>
  <line x1="710" y1="65" x2="705" y2="90" stroke="#6A9AB5" stroke-width="2" opacity="0.7"/>
  <line x1="540" y1="95" x2="535" y2="120" stroke="#6A9AB5" stroke-width="2" opacity="0.7"/>
  <line x1="570" y1="100" x2="565" y2="125" stroke="#6A9AB5" stroke-width="2" opacity="0.7"/>
  <line x1="600" y1="92" x2="595" y2="117" stroke="#6A9AB5" stroke-width="2" opacity="0.7"/>
  <line x1="630" y1="98" x2="625" y2="123" stroke="#6A9AB5" stroke-width="2" opacity="0.7"/>
  <line x1="660" y1="94" x2="655" y2="119" stroke="#6A9AB5" stroke-width="2" opacity="0.7"/>
  <line x1="690" y1="100" x2="685" y2="125" stroke="#6A9AB5" stroke-width="2" opacity="0.7"/>
  <line x1="720" y1="88" x2="715" y2="113" stroke="#6A9AB5" stroke-width="2" opacity="0.7"/>
  <line x1="525" y1="135" x2="520" y2="160" stroke="#6A9AB5" stroke-width="2" opacity="0.6"/>
  <line x1="555" y1="140" x2="550" y2="165" stroke="#6A9AB5" stroke-width="2" opacity="0.6"/>
  <line x1="585" y1="132" x2="580" y2="157" stroke="#6A9AB5" stroke-width="2" opacity="0.6"/>
  <line x1="615" y1="138" x2="610" y2="163" stroke="#6A9AB5" stroke-width="2" opacity="0.6"/>
  <line x1="645" y1="130" x2="640" y2="155" stroke="#6A9AB5" stroke-width="2" opacity="0.6"/>
  <line x1="675" y1="140" x2="670" y2="165" stroke="#6A9AB5" stroke-width="2" opacity="0.6"/>
  <!-- Window frame -->
  <rect x="500" y="40" width="240" height="175" rx="8" fill="none" stroke="#C8A26A" stroke-width="8"/>
  <line x1="620" y1="40" x2="620" y2="215" stroke="#C8A26A" stroke-width="6"/>
  <line x1="500" y1="127" x2="740" y2="127" stroke="#C8A26A" stroke-width="6"/>
  <!-- Windowsill with plant -->
  <rect x="490" y="210" width="260" height="18" rx="4" fill="#C8A26A"/>
  <rect x="710" y="190" width="22" height="25" rx="3" fill="#D84315"/>
  <circle cx="721" cy="185" r="16" fill="#2E7D32"/>
  <circle cx="708" cy="190" r="12" fill="#388E3C"/>
  <circle cx="734" cy="188" r="13" fill="#2E7D32"/>
  <!-- Kitchen counter / table -->
  <rect x="0" y="240" width="800" height="20" rx="0" fill="#D4A96A"/>
  <rect x="0" y="260" width="800" height="120" fill="#E8C98A"/>
  <!-- Checkered tablecloth area -->
  <rect x="150" y="240" width="370" height="10" fill="#E8C98A"/>
  <!-- Pot on stove area (left) -->
  <rect x="50" y="150" width="150" height="100" rx="5" fill="#BDBDBD"/>
  <rect x="50" y="145" width="150" height="15" rx="3" fill="#9E9E9E"/>
  <ellipse cx="125" cy="148" rx="55" ry="12" fill="#E0E0E0"/>
  <!-- Knobs on stove -->
  <circle cx="80" cy="165" r="8" fill="#757575"/>
  <circle cx="110" cy="165" r="8" fill="#757575"/>
  <circle cx="140" cy="165" r="8" fill="#757575"/>
  <circle cx="170" cy="165" r="8" fill="#757575"/>
  <!-- Main soup bowl -->
  <ellipse cx="340" cy="265" rx="100" ry="22" fill="#D4A96A" opacity="0.5"/>
  <path d="M 240 250 Q 240 310 340 315 Q 440 310 440 250 Z" fill="#E8C98A"/>
  <ellipse cx="340" cy="250" rx="100" ry="22" fill="#D4A96A"/>
  <!-- Soup inside -->
  <ellipse cx="340" cy="250" rx="88" ry="18" fill="#FF8C42"/>
  <!-- Vegetables in soup -->
  <circle cx="300" cy="250" r="10" fill="#FF5722"/>
  <ellipse cx="330" cy="246" rx="12" ry="8" fill="#FF8F00"/>
  <circle cx="370" cy="253" r="9" fill="#66BB6A"/>
  <ellipse cx="355" cy="247" rx="8" ry="12" fill="#FFF176"/>
  <circle cx="315" cy="255" r="7" fill="#EF9A9A"/>
  <!-- Steam -->
  <path d="M 295 240 Q 285 210 295 185 Q 305 160 295 135" stroke="#DDD" stroke-width="4" fill="none" opacity="0.7" stroke-linecap="round"/>
  <path d="M 340 238 Q 330 208 340 183 Q 350 158 340 133" stroke="#DDD" stroke-width="4" fill="none" opacity="0.7" stroke-linecap="round"/>
  <path d="M 385 240 Q 375 210 385 185 Q 395 160 385 135" stroke="#DDD" stroke-width="4" fill="none" opacity="0.7" stroke-linecap="round"/>
  <!-- Spoon -->
  <ellipse cx="460" cy="252" rx="16" ry="10" fill="#C8C8C8"/>
  <rect x="465" y="252" width="8" height="55" rx="4" fill="#C8C8C8" transform="rotate(10,465,252)"/>
</svg>