<svg xmlns="http://www.w3.org/2000/svg" viewBox="0 0 800 380" width="800" height="380">
  <defs>
    <linearGradient id="sky7" x1="0" y1="0" x2="0" y2="1"><stop offset="0%" stop-color="#607D8B"/><stop offset="100%" stop-color="#90A4AE"/></linearGradient>
    <linearGradient id="gr7" x1="0" y1="0" x2="0" y2="1"><stop offset="0%" stop-color="#558B2F"/><stop offset="100%" stop-color="#33691E"/></linearGradient>
  </defs>
  <rect width="800" height="380" fill="url(#sky7)"/>
  <!-- Rain clouds -->
  <ellipse cx="200" cy="80" rx="120" ry="55" fill="#546E7A"/>
  <ellipse cx="280" cy="60" rx="100" ry="48" fill="#607D8B"/>
  <ellipse cx="130" cy="95" rx="90" ry="45" fill="#546E7A"/>
  <ellipse cx="550" cy="70" rx="130" ry="55" fill="#546E7A"/>
  <ellipse cx="640" cy="52" rx="100" ry="48" fill="#607D8B"/>
  <ellipse cx="480" cy="88" rx="80" ry="40" fill="#546E7A"/>
  <!-- Rain streaks -->
  <line x1="100" y1="110" x2="90" y2="150" stroke="#90CAF9" stroke-width="2" opacity="0.6"/>
  <line x1="140" y1="100" x2="130" y2="140" stroke="#90CAF9" stroke-width="2" opacity="0.6"/>
  <line x1="180" y1="115" x2="170" y2="155" stroke="#90CAF9" stroke-width="2" opacity="0.6"/>
  <line x1="220" y1="105" x2="210" y2="145" stroke="#90CAF9" stroke-width="2" opacity="0.6"/>
  <line x1="260" y1="110" x2="250" y2="150" stroke="#90CAF9" stroke-width="2" opacity="0.6"/>
  <line x1="300" y1="100" x2="290" y2="140" stroke="#90CAF9" stroke-width="2" opacity="0.6"/>
  <line x1="340" y1="115" x2="330" y2="155" stroke="#90CAF9" stroke-width="2" opacity="0.6"/>
  <line x1="380" y1="105" x2="370" y2="145" stroke="#90CAF9" stroke-width="2" opacity="0.6"/>
  <line x1="420" y1="112" x2="410" y2="152" stroke="#90CAF9" stroke-width="2" opacity="0.6"/>
  <line x1="460" y1="102" x2="450" y2="142" stroke="#90CAF9" stroke-width="2" opacity="0.6"/>
  <line x1="500" y1="115" x2="490" y2="155" stroke="#90CAF9" stroke-width="2" opacity="0.6"/>
  <line x1="540" y1="105" x2="530" y2="145" stroke="#90CAF9" stroke-width="2" opacity="0.6"/>
  <line x1="580" y1="110" x2="570" y2="150" stroke="#90CAF9" stroke-width="2" opacity="0.6"/>
  <line x1="620" y1="100" x2="610" y2="140" stroke="#90CAF9" stroke-width="2" opacity="0.6"/>
  <line x1="660" y1="115" x2="650" y2="155" stroke="#90CAF9" stroke-width="2" opacity="0.6"/>
  <line x1="700" y1="105" x2="690" y2="145" stroke="#90CAF9" stroke-width="2" opacity="0.6"/>
  <line x1="120" y1="155" x2="110" y2="200" stroke="#90CAF9" stroke-width="1.5" opacity="0.5"/>
  <line x1="200" y1="160" x2="190" y2="205" stroke="#90CAF9" stroke-width="1.5" opacity="0.5"/>
  <line x1="280" y1="150" x2="270" y2="195" stroke="#90CAF9" stroke-width="1.5" opacity="0.5"/>
  <line x1="360" y1="158" x2="350" y2="203" stroke="#90CAF9" stroke-width="1.5" opacity="0.5"/>
  <line x1="440" y1="152" x2="430" y2="197" stroke="#90CAF9" stroke-width="1.5" opacity="0.5"/>
  <line x1="520" y1="160" x2="510" y2="205" stroke="#90CAF9" stroke-width="1.5" opacity="0.5"/>
  <line x1="600" y1="155" x2="590" y2="200" stroke="#90CAF9" stroke-width="1.5" opacity="0.5"/>
  <line x1="680" y1="158" x2="670" y2="203" stroke="#90CAF9" stroke-width="1.5" opacity="0.5"/>
  <!-- Muddy grass -->
  <rect x="0" y="260" width="800" height="120" fill="url(#gr7)"/>
  <!-- Mud patches -->
  <ellipse cx="250" cy="280" rx="60" ry="18" fill="#4E342E" opacity="0.5"/>
  <ellipse cx="450" cy="295" rx="80" ry="20" fill="#4E342E" opacity="0.5"/>
  <ellipse cx="620" cy="285" rx="50" ry="15" fill="#4E342E" opacity="0.5"/>
  <!-- Puddle -->
  <ellipse cx="350" cy="300" rx="55" ry="20" fill="#7CB9E8" opacity="0.6"/>
  <!-- Goal in background -->
  <rect x="600" y="180" width="160" height="80" fill="none" stroke="white" stroke-width="5" opacity="0.8"/>
  <line x1="600" y1="260" x2="615" y2="285" stroke="white" stroke-width="4" opacity="0.6"/>
  <line x1="760" y1="260" x2="745" y2="285" stroke="white" stroke-width="4" opacity="0.6"/>
  <!-- Player 1 - kicking -->
  <circle cx="280" cy="205" r="22" fill="#FFCC80"/>
  <rect x="268" y="225" width="24" height="40" rx="5" fill="#1565C0"/>
  <line x1="268" y1="245" x2="245" y2="270" stroke="#1565C0" stroke-width="10" stroke-linecap="round"/>
  <line x1="292" y1="255" x2="310" y2="278" stroke="#1565C0" stroke-width="10" stroke-linecap="round"/>
  <ellipse cx="310" cy="282" rx="16" ry="10" fill="#F44336"/>
  <!-- Player 2 - running -->
  <circle cx="480" cy="200" r="22" fill="#FFCC80"/>
  <rect x="468" y="220" width="24" height="40" rx="5" fill="#E53935"/>
  <line x1="468" y1="245" x2="450" y2="275" stroke="#E53935" stroke-width="10" stroke-linecap="round"/>
  <line x1="492" y1="248" x2="508" y2="275" stroke="#E53935" stroke-width="10" stroke-linecap="round"/>
  <!-- Soccer ball in mid air -->
  <circle cx="370" cy="235" r="28" fill="white" stroke="#333" stroke-width="2"/>
  <polygon points="370,208 387,220 381,240 359,240 353,220" fill="#222"/>
  <polygon points="398,231 411,245 406,263 384,263 379,245" fill="#222"/>
  <!-- Splash marks -->
  <path d="M 340 300 Q 335 285 345 278 Q 355 285 350 300" fill="#7CB9E8" opacity="0.7"/>
  <path d="M 380 305 Q 375 290 385 283 Q 395 290 390 305" fill="#7CB9E8" opacity="0.7"/>
</svg>