<svg xmlns="http://www.w3.org/2000/svg" viewBox="0 0 800 380" width="800" height="380">
  <defs>
    <linearGradient id="sky6" x1="0" y1="0" x2="0" y2="1"><stop offset="0%" stop-color="#87CEEB"/><stop offset="100%" stop-color="#C8E6FF"/></linearGradient>
    <linearGradient id="gr6" x1="0" y1="0" x2="0" y2="1"><stop offset="0%" stop-color="#66BB6A"/><stop offset="100%" stop-color="#388E3C"/></linearGradient>
  </defs>
  <rect width="800" height="380" fill="url(#sky6)"/>
  <circle cx="700" cy="75" r="50" fill="#FFD700"/>
  <circle cx="700" cy="75" r="40" fill="#FFE135"/>
  <ellipse cx="180" cy="75" rx="80" ry="38" fill="white" opacity="0.9"/>
  <ellipse cx="240" cy="60" rx="60" ry="30" fill="white" opacity="0.9"/>
  <rect x="0" y="260" width="800" height="120" fill="url(#gr6)"/>
  <!-- Flowers -->
  <circle cx="100" cy="268" r="10" fill="#FF69B4"/>
  <circle cx="100" cy="268" r="6" fill="#FFD700"/>
  <circle cx="200" cy="272" r="9" fill="#FF6347"/>
  <circle cx="200" cy="272" r="5" fill="#FFD700"/>
  <circle cx="620" cy="265" r="10" fill="#9B59B6"/>
  <circle cx="620" cy="265" r="6" fill="#FFD700"/>
  <circle cx="700" cy="270" r="8" fill="#FF69B4"/>
  <circle cx="700" cy="270" r="4" fill="#FFD700"/>
  <!-- Bush -->
  <circle cx="580" cy="258" r="40" fill="#388E3C"/>
  <circle cx="620" cy="252" r="45" fill="#43A047"/>
  <circle cx="660" cy="258" r="38" fill="#388E3C"/>
  <!-- Cat body -->
  <ellipse cx="380" cy="300" rx="75" ry="55" fill="#F4A460"/>
  <!-- Cat head -->
  <circle cx="380" cy="215" r="70" fill="#F4A460"/>
  <!-- Ears -->
  <polygon points="325,165 305,120 360,155" fill="#F4A460"/>
  <polygon points="335,162 320,135 357,155" fill="#FFB6C1"/>
  <polygon points="435,165 455,120 400,155" fill="#F4A460"/>
  <polygon points="425,162 440,135 403,155" fill="#FFB6C1"/>
  <!-- Big eyes -->
  <ellipse cx="352" cy="205" rx="24" ry="28" fill="white"/>
  <ellipse cx="408" cy="205" rx="24" ry="28" fill="white"/>
  <circle cx="356" cy="208" r="16" fill="#228B22"/>
  <circle cx="412" cy="208" r="16" fill="#228B22"/>
  <ellipse cx="356" cy="208" rx="8" ry="14" fill="#111"/>
  <ellipse cx="412" cy="208" rx="8" ry="14" fill="#111"/>
  <circle cx="350" cy="200" r="4" fill="white"/>
  <circle cx="406" cy="200" r="4" fill="white"/>
  <!-- Nose and mouth -->
  <polygon points="380,228 372,238 388,238" fill="#FF9999"/>
  <path d="M 372 238 Q 365 248 358 244" stroke="#8B4513" stroke-width="2" fill="none"/>
  <path d="M 388 238 Q 395 248 402 244" stroke="#8B4513" stroke-width="2" fill="none"/>
  <!-- Whiskers -->
  <line x1="330" y1="232" x2="368" y2="235" stroke="#8B4513" stroke-width="2"/>
  <line x1="325" y1="240" x2="368" y2="240" stroke="#8B4513" stroke-width="2"/>
  <line x1="392" y1="235" x2="430" y2="232" stroke="#8B4513" stroke-width="2"/>
  <line x1="392" y1="240" x2="435" y2="240" stroke="#8B4513" stroke-width="2"/>
  <!-- Tail -->
  <path d="M 455 320 Q 540 280 560 240 Q 575 200 550 180" stroke="#F4A460" stroke-width="18" fill="none" stroke-linecap="round"/>
  <!-- Paws -->
  <ellipse cx="330" cy="345" rx="28" ry="18" fill="#F4A460"/>
  <ellipse cx="430" cy="345" rx="28" ry="18" fill="#F4A460"/>
  <!-- Collar -->
  <rect x="340" y="270" width="80" height="14" rx="7" fill="#FF3D00"/>
  <circle cx="380" cy="277" r="6" fill="#FFD700"/>
</svg>