<svg xmlns="http://www.w3.org/2000/svg" viewBox="0 0 800 380" width="800" height="380">
  <defs>
    <linearGradient id="bakery" x1="0" y1="0" x2="0" y2="1"><stop offset="0%" stop-color="#FFF8E1"/><stop offset="100%" stop-color="#FFF3CD"/></linearGradient>
    <linearGradient id="counter" x1="0" y1="0" x2="0" y2="1"><stop offset="0%" stop-color="#F5DEB3"/><stop offset="100%" stop-color="#DEB887"/></linearGradient>
  </defs>
  <rect width="800" height="380" fill="url(#bakery)"/>
  <!-- Back wall -->
  <rect x="0" y="0" width="800" height="230" fill="#FFECB3"/>
  <!-- Shelves on wall -->
  <rect x="30" y="40" width="740" height="12" rx="4" fill="#A0785A"/>
  <rect x="30" y="115" width="740" height="12" rx="4" fill="#A0785A"/>
  <rect x="30" y="190" width="740" height="12" rx="4" fill="#A0785A"/>
  <!-- Shelf supports -->
  <rect x="30" y="40" width="8" height="162" fill="#8B6340"/>
  <rect x="762" y="40" width="8" height="162" fill="#8B6340"/>
  <rect x="260" y="40" width="8" height="162" fill="#8B6340"/>
  <rect x="530" y="40" width="8" height="162" fill="#8B6340"/>
  <!-- Bread loaves on top shelf -->
  <ellipse cx="90" cy="38" rx="45" ry="22" fill="#D4822A"/>
  <ellipse cx="90" cy="32" rx="40" ry="18" fill="#E8A040"/>
  <line x1="60" y1="28" x2="120" y2="28" stroke="#C06820" stroke-width="3" opacity="0.5"/>
  <ellipse cx="185" cy="38" rx="40" ry="20" fill="#C06820"/>
  <ellipse cx="185" cy="32" rx="35" ry="16" fill="#D4822A"/>
  <ellipse cx="330" cy="36" rx="50" ry="24" fill="#E8A040"/>
  <ellipse cx="330" cy="29" rx="45" ry="19" fill="#F0B050"/>
  <line x1="295" y1="25" x2="365" y2="25" stroke="#C06820" stroke-width="3" opacity="0.5"/>
  <!-- Baguettes -->
  <rect x="410" y="15" width="110" height="26" rx="13" fill="#D4822A"/>
  <rect x="415" y="17" width="100" height="22" rx="11" fill="#E8A040"/>
  <line x1="430" y1="17" x2="430" y2="39" stroke="#C06820" stroke-width="2" opacity="0.5"/>
  <line x1="450" y1="17" x2="450" y2="39" stroke="#C06820" stroke-width="2" opacity="0.5"/>
  <line x1="470" y1="17" x2="470" y2="39" stroke="#C06820" stroke-width="2" opacity="0.5"/>
  <line x1="490" y1="17" x2="490" y2="39" stroke="#C06820" stroke-width="2" opacity="0.5"/>
  <line x1="510" y1="17" x2="510" y2="39" stroke="#C06820" stroke-width="2" opacity="0.5"/>
  <rect x="570" y="18" width="100" height="22" rx="11" fill="#C06820"/>
  <rect x="575" y="20" width="90" height="18" rx="9" fill="#D4822A"/>
  <!-- Cakes on middle shelf -->
  <rect x="40" y="90" width="75" height="25" rx="5" fill="#F48FB1"/>
  <rect x="40" y="80" width="75" height="15" rx="5" fill="#F06292"/>
  <rect x="40" y="70" width="75" height="15" rx="5" fill="#EC407A"/>
  <!-- Frosting drips -->
  <path d="M 45 80 Q 48 90 51 80" fill="#F8BBD0"/>
  <path d="M 65 80 Q 68 90 71 80" fill="#F8BBD0"/>
  <path d="M 85 80 Q 88 90 91 80" fill="#F8BBD0"/>
  <circle cx="77" cy="68" r="6" fill="#FF4081"/>
  <!-- Layer cake 2 -->
  <rect x="160" y="90" width="80" height="25" rx="5" fill="#A5D6A7"/>
  <rect x="160" y="78" width="80" height="16" rx="5" fill="#81C784"/>
  <rect x="160" y="66" width="80" height="16" rx="5" fill="#66BB6A"/>
  <circle cx="200" cy="64" r="8" fill="#FF4081"/>
  <!-- Croissants on middle shelf -->
  <path d="M 295 100 Q 310 75 330 100 Q 315 95 295 100 Z" fill="#D4822A"/>
  <path d="M 298 99 Q 313 78 330 99 Q 315 93 298 99 Z" fill="#E8A040"/>
  <path d="M 355 100 Q 372 76 390 100 Q 374 94 355 100 Z" fill="#D4822A"/>
  <!-- Donuts -->
  <circle cx="460" cy="87" r="25" fill="#F4A460"/>
  <circle cx="460" cy="87" r="12" fill="#FFECB3"/>
  <!-- Pink frosting on donut -->
  <path d="M 438 80 Q 445 72 460 72 Q 475 72 482 80 Q 477 85 460 84 Q 443 85 438 80 Z" fill="#FF80AB"/>
  <circle cx="560" cy="87" r="25" fill="#D4822A"/>
  <circle cx="560" cy="87" r="12" fill="#FFECB3"/>
  <path d="M 538 80 Q 545 72 560 72 Q 575 72 582 80 Q 577 85 560 84 Q 543 85 538 80 Z" fill="#80DEEA"/>
  <!-- Muffins on bottom shelf -->
  <path d="M 55 185 Q 55 165 80 165 Q 105 165 105 185 Z" fill="#F8BBD0"/>
  <rect x="55" y="185" width="50" height="20" rx="5" fill="#F48FB1"/>
  <circle cx="80" cy="163" r="5" fill="#FF4081"/>
  <path d="M 125 185 Q 125 165 150 165 Q 175 165 175 185 Z" fill="#A5D6A7"/>
  <rect x="125" y="185" width="50" height="20" rx="5" fill="#81C784"/>
  <circle cx="150" cy="163" r="5" fill="#FF4081"/>
  <path d="M 195 185 Q 195 165 220 165 Q 245 165 245 185 Z" fill="#FFCC80"/>
  <rect x="195" y="185" width="50" height="20" rx="5" fill="#FFA726"/>
  <!-- Cookies -->
  <circle cx="325" cy="183" r="22" fill="#D4822A"/>
  <circle cx="325" cy="183" r="18" fill="#E8A040"/>
  <circle cx="315" cy="178" r="4" fill="#5D4037"/>
  <circle cx="335" cy="178" r="4" fill="#5D4037"/>
  <circle cx="325" cy="190" r="4" fill="#5D4037"/>
  <circle cx="395" cy="183" r="22" fill="#C06820"/>
  <circle cx="395" cy="183" r="18" fill="#D4822A"/>
  <circle cx="385" cy="177" r="4" fill="#5D4037"/>
  <circle cx="405" cy="177" r="4" fill="#5D4037"/>
  <!-- Counter -->
  <rect x="0" y="230" width="800" height="25" rx="0" fill="url(#counter)"/>
  <!-- Glass display case -->
  <rect x="0" y="255" width="800" height="125" fill="#FFF9F0"/>
  <rect x="0" y="255" width="800" height="5" fill="#D4A96A"/>
  <!-- Items in display case -->
  <ellipse cx="100" cy="295" rx="55" ry="28" fill="#E8A040" opacity="0.9"/>
  <ellipse cx="100" cy="288" rx="50" ry="23" fill="#F0B050"/>
  <rect x="215" y="270" width="70" height="50" rx="5" fill="#F48FB1"/>
  <rect x="215" y="265" width="70" height="15" rx="5" fill="#F06292"/>
  <rect x="315" y="272" width="65" height="45" rx="5" fill="#A5D6A7"/>
  <rect x="315" y="267" width="65" height="15" rx="5" fill="#66BB6A"/>
  <!-- Tongs -->
  <path d="M 480 260 Q 490 285 480 310" stroke="#9E9E9E" stroke-width="4" fill="none" stroke-linecap="round"/>
  <path d="M 495 260 Q 490 285 495 310" stroke="#9E9E9E" stroke-width="4" fill="none" stroke-linecap="round"/>
  <path d="M 480 260 Q 487 255 495 260" stroke="#9E9E9E" stroke-width="4" fill="none"/>
  <!-- Warm light glow -->
  <rect x="0" y="0" width="800" height="380" fill="#FF9800" opacity="0.04"/>
</svg>