<svg xmlns="http://www.w3.org/2000/svg" viewBox="0 0 800 380" width="800" height="380">
  <defs>
    <linearGradient id="sky8" x1="0" y1="0" x2="0" y2="1"><stop offset="0%" stop-color="#87CEEB"/><stop offset="100%" stop-color="#B3E5FC"/></linearGradient>
    <linearGradient id="gr8" x1="0" y1="0" x2="0" y2="1"><stop offset="0%" stop-color="#66BB6A"/><stop offset="100%" stop-color="#388E3C"/></linearGradient>
  </defs>
  <rect width="800" height="380" fill="url(#sky8)"/>
  <circle cx="100" cy="70" r="48" fill="#FFD700"/>
  <circle cx="100" cy="70" r="38" fill="#FFE135"/>
  <ellipse cx="500" cy="75" rx="80" ry="38" fill="white" opacity="0.9"/>
  <ellipse cx="560" cy="60" rx="65" ry="32" fill="white" opacity="0.9"/>
  <!-- School building -->
  <rect x="520" y="90" width="260" height="175" fill="#EF9A9A"/>
  <polygon points="510,90 790,90 650,25" fill="#E57373"/>
  <rect x="590" y="140" width="55" height="80" rx="3" fill="#90CAF9"/>
  <rect x="670" y="140" width="55" height="80" rx="3" fill="#90CAF9"/>
  <rect x="620" y="200" width="60" height="65" rx="3" fill="#5C3A1E"/>
  <!-- School sign -->
  <rect x="610" y="95" width="80" height="25" fill="white" rx="3"/>
  <!-- Grass -->
  <rect x="0" y="265" width="800" height="115" fill="url(#gr8)"/>
  <!-- Garden beds -->
  <rect x="80" y="245" width="340" height="50" rx="8" fill="#6D4C41"/>
  <!-- Plants in garden -->
  <line x1="120" y1="245" x2="120" y2="195" stroke="#2E7D32" stroke-width="4"/>
  <circle cx="120" cy="192" r="20" fill="#43A047"/>
  <circle cx="100" cy="205" r="16" fill="#388E3C"/>
  <circle cx="140" cy="205" r="18" fill="#43A047"/>
  <circle cx="118" cy="190" r="10" fill="#FF3D00"/>
  <!-- More plants -->
  <line x1="200" y1="245" x2="200" y2="200" stroke="#2E7D32" stroke-width="4"/>
  <circle cx="200" cy="197" r="18" fill="#43A047"/>
  <circle cx="185" cy="208" r="14" fill="#388E3C"/>
  <circle cx="215" cy="207" r="16" fill="#43A047"/>
  <circle cx="200" cy="194" r="9" fill="#E53935"/>
  <line x1="280" y1="245" x2="280" y2="205" stroke="#2E7D32" stroke-width="3"/>
  <path d="M 265 205 Q 280 185 295 205" fill="#2E7D32"/>
  <path d="M 270 202 Q 280 178 290 202" fill="#43A047"/>
  <path d="M 280 245 L 270 278 L 290 278 Z" fill="#FF8C00"/>
  <line x1="350" y1="245" x2="350" y2="200" stroke="#2E7D32" stroke-width="4"/>
  <circle cx="350" cy="197" r="20" fill="#43A047"/>
  <circle cx="350" cy="194" r="10" fill="#E91E63"/>
  <!-- Child 1 - watering -->
  <circle cx="480" cy="195" r="24" fill="#FFCC80"/>
  <rect x="468" y="218" width="26" height="45" rx="5" fill="#42A5F5"/>
  <line x1="468" y1="235" x2="448" y2="265" stroke="#42A5F5" stroke-width="12" stroke-linecap="round"/>
  <line x1="494" y1="238" x2="510" y2="268" stroke="#42A5F5" stroke-width="12" stroke-linecap="round"/>
  <!-- Watering can held by child -->
  <rect x="510" y="250" width="38" height="26" rx="4" fill="#FF9800"/>
  <path d="M 548 255 Q 565 250 568 260 L 560 265 Q 558 258 548 260 Z" fill="#FF9800"/>
  <!-- Water drops -->
  <circle cx="558" cy="270" r="3" fill="#42A5F5" opacity="0.8"/>
  <circle cx="563" cy="278" r="2" fill="#42A5F5" opacity="0.8"/>
  <circle cx="555" cy="282" r="2" fill="#42A5F5" opacity="0.8"/>
  <!-- Butterfly -->
  <ellipse cx="440" cy="170" rx="18" ry="12" fill="#FF9800" opacity="0.9" transform="rotate(-20,440,170)"/>
  <ellipse cx="462" cy="172" rx="18" ry="12" fill="#FF9800" opacity="0.9" transform="rotate(20,462,172)"/>
  <ellipse cx="443" cy="176" rx="12" ry="8" fill="#FFD54F" opacity="0.7" transform="rotate(-20,443,176)"/>
  <ellipse cx="459" cy="178" rx="12" ry="8" fill="#FFD54F" opacity="0.7" transform="rotate(20,459,178)"/>
  <line x1="451" y1="168" x2="451" y2="182" stroke="#5D4037" stroke-width="2"/>
</svg>