<svg xmlns="http://www.w3.org/2000/svg" viewBox="0 0 128 128" role="img" aria-label="Karin – kanin">
  <defs>
    <radialGradient id="skenK" cx="50%" cy="34%" r="62%">
      <stop offset="0%" stop-color="#ffffff" stop-opacity=".30"/>
      <stop offset="100%" stop-color="#ffffff" stop-opacity="0"/>
    </radialGradient>
  </defs>
  <circle cx="64" cy="64" r="62" fill="#2563eb"/>
  <circle cx="64" cy="64" r="62" fill="url(#skenK)"/>

  <!-- öron -->
  <ellipse cx="49" cy="34" rx="10" ry="27" fill="#f8fafc" transform="rotate(-9 49 34)"/>
  <ellipse cx="79" cy="34" rx="10" ry="27" fill="#f8fafc" transform="rotate(9 79 34)"/>
  <ellipse cx="49" cy="35" rx="5" ry="19" fill="#f9a8d4" transform="rotate(-9 49 35)"/>
  <ellipse cx="79" cy="35" rx="5" ry="19" fill="#f9a8d4" transform="rotate(9 79 35)"/>

  <!-- huvud -->
  <ellipse cx="64" cy="75" rx="38" ry="32" fill="#f8fafc"/>
  <ellipse cx="64" cy="69" rx="31" ry="22" fill="#ffffff" opacity=".75"/>

  <!-- kinder -->
  <ellipse cx="34" cy="80" rx="7" ry="5" fill="#f9a8d4" opacity=".5"/>
  <ellipse cx="94" cy="80" rx="7" ry="5" fill="#f9a8d4" opacity=".5"/>

  <!-- ögon -->
  <circle cx="50" cy="70" r="6" fill="#1f2937"/>
  <circle cx="78" cy="70" r="6" fill="#1f2937"/>
  <circle cx="52" cy="68" r="2.2" fill="#ffffff"/>
  <circle cx="80" cy="68" r="2.2" fill="#ffffff"/>

  <!-- nos och mun -->
  <path d="M64 82 l6 4.5 -6 4 -6 -4 Z" fill="#ec4899"/>
  <path d="M64 90.5 v4.5" stroke="#94a3b8" stroke-width="2" stroke-linecap="round"/>
  <path d="M64 95 q-6 5 -11 0" fill="none" stroke="#94a3b8" stroke-width="2" stroke-linecap="round"/>
  <path d="M64 95 q6 5 11 0" fill="none" stroke="#94a3b8" stroke-width="2" stroke-linecap="round"/>

  <!-- morrhår -->
  <path d="M40 84 h-14 M40 89 h-13 M88 84 h14 M88 89 h13" stroke="#cbd5e1" stroke-width="1.8" stroke-linecap="round"/>
</svg>
