<svg xmlns="http://www.w3.org/2000/svg" viewBox="0 0 800 450"><rect width="800" height="450" fill="#cfe9f7"/><circle cx="110" cy="80" r="38" fill="#ffd66b"/><circle cx="110" cy="80" r="52" fill="#ffd66b" opacity=".25"/><g transform="translate(640,70) scale(0.9)" fill="#ffffff" opacity="0.9"><ellipse cx="0" cy="0" rx="46" ry="20"/><ellipse cx="-30" cy="8" rx="30" ry="14"/><ellipse cx="32" cy="8" rx="34" ry="15"/></g><ellipse cx="400" cy="480" rx="600" ry="160" fill="#a8d88f"/><g transform="translate(250,250)"><rect x="-58" y="0" width="116" height="150" rx="10" fill="#3f7fb5"/><rect x="-58" y="0" width="116" height="26" rx="10" fill="#ffffff" opacity=".25"/><rect x="-34" y="-14" width="68" height="16" rx="6" fill="#3f7fb5"/><g transform="translate(0,72)" fill="none" stroke="#ffffff" stroke-width="5" stroke-linecap="round"><path d="M-16,-6 l10,-16 l10,4"/><path d="M16,2 l-2,18 l-14,-2"/><path d="M-14,14 l-8,-12 l12,-8"/><polygon points="2,-24 -6,-22 -2,-16" fill="#ffffff" stroke="none"/></g><text x="0" y="132" font-family="system-ui,sans-serif" font-size="15" font-weight="bold" fill="#ffffff" text-anchor="middle">PAPPER</text></g><g transform="translate(400,250)"><rect x="-58" y="0" width="116" height="150" rx="10" fill="#e8b73e"/><rect x="-58" y="0" width="116" height="26" rx="10" fill="#ffffff" opacity=".25"/><rect x="-34" y="-14" width="68" height="16" rx="6" fill="#e8b73e"/><g transform="translate(0,72)" fill="none" stroke="#ffffff" stroke-width="5" stroke-linecap="round"><path d="M-16,-6 l10,-16 l10,4"/><path d="M16,2 l-2,18 l-14,-2"/><path d="M-14,14 l-8,-12 l12,-8"/><polygon points="2,-24 -6,-22 -2,-16" fill="#ffffff" stroke="none"/></g><text x="0" y="132" font-family="system-ui,sans-serif" font-size="15" font-weight="bold" fill="#ffffff" text-anchor="middle">PLAST</text></g><g transform="translate(550,250)"><rect x="-58" y="0" width="116" height="150" rx="10" fill="#5e8c5a"/><rect x="-58" y="0" width="116" height="26" rx="10" fill="#ffffff" opacity=".25"/><rect x="-34" y="-14" width="68" height="16" rx="6" fill="#5e8c5a"/><g transform="translate(0,72)" fill="none" stroke="#ffffff" stroke-width="5" stroke-linecap="round"><path d="M-16,-6 l10,-16 l10,4"/><path d="M16,2 l-2,18 l-14,-2"/><path d="M-14,14 l-8,-12 l12,-8"/><polygon points="2,-24 -6,-22 -2,-16" fill="#ffffff" stroke="none"/></g><text x="0" y="132" font-family="system-ui,sans-serif" font-size="15" font-weight="bold" fill="#ffffff" text-anchor="middle">GLAS</text></g><ellipse cx="400" cy="408" rx="320" ry="14" fill="#8fcb78"/></svg>