<svg xmlns="http://www.w3.org/2000/svg" viewBox="0 0 800 450"><rect width="800" height="450" fill="#cfe9f7"/><g transform="translate(150,80) scale(1)" fill="#ffffff" opacity="0.9"><ellipse cx="0" cy="0" rx="46" ry="20"/><ellipse cx="-30" cy="8" rx="30" ry="14"/><ellipse cx="32" cy="8" rx="34" ry="15"/></g><g transform="translate(620,60) scale(0.8)" fill="#ffffff" opacity="0.9"><ellipse cx="0" cy="0" rx="46" ry="20"/><ellipse cx="-30" cy="8" rx="30" ry="14"/><ellipse cx="32" cy="8" rx="34" ry="15"/></g><circle cx="710" cy="90" r="30" fill="#ffd66b"/><circle cx="710" cy="90" r="44" fill="#ffd66b" opacity=".25"/><ellipse cx="400" cy="490" rx="600" ry="150" fill="#b9c9a8"/><g transform="translate(400,355)"><rect x="-110" y="-250" width="220" height="250" fill="#e8d9b8" stroke="#c9b890" stroke-width="3"/><polygon points="-126,-250 0,-310 126,-250" fill="#a8674f"/><rect x="-90" y="-236" width="180" height="34" rx="5" fill="#7e4a3a"/><rect x="-78" y="-228" width="156" height="18" rx="3" fill="#caa05a" opacity=".7"/><g fill="#bfae8c" stroke="#8d7c5d" stroke-width="3"><rect x="-82" y="-180" width="58" height="64"/><rect x="24" y="-180" width="58" height="64"/></g><line x1="-82" y1="-180" x2="-24" y2="-116" stroke="#8d7c5d" stroke-width="5"/><line x1="24" y1="-116" x2="82" y2="-180" stroke="#8d7c5d" stroke-width="5"/><rect x="-28" y="-78" width="56" height="78" rx="4" fill="#7e4a3a"/><circle cx="16" cy="-38" r="4" fill="#caa05a"/><rect x="-40" y="0" width="80" height="10" fill="#b3a07c"/></g><g transform="translate(400,136)" fill="none" stroke="#5e3326" stroke-width="6" stroke-linecap="round"><path d="M-22,8 a22,20 0 1 1 44,0 M-22,8 q10,14 22,2 M22,8 q-10,14 -22,2"/></g></svg>