<svg xmlns="http://www.w3.org/2000/svg" viewBox="0 0 800 450"><rect width="800" height="450" fill="#f2e8da"/><rect width="800" height="450" fill="#f2e8da"/><g><path d="M120,110 h240 a22,22 0 0 1 22,22 v110 a22,22 0 0 1 -22,22 h-150 l-40,46 6,-46 h-56 a22,22 0 0 1 -22,-22 v-110 a22,22 0 0 1 22,-22 z" fill="#3f7fb5"/><text x="240" y="200" font-family="Georgia,serif" font-size="64" font-weight="bold" fill="#fff" text-anchor="middle">JA!</text></g><g><path d="M680,150 h-240 a22,22 0 0 0 -22,22 v110 a22,22 0 0 0 22,22 h150 l40,46 -6,-46 h56 a22,22 0 0 0 22,-22 v-110 a22,22 0 0 0 -22,-22 z" fill="#c9556a"/><text x="560" y="240" font-family="Georgia,serif" font-size="64" font-weight="bold" fill="#fff" text-anchor="middle">NEJ!</text></g><polygon points="402,196 380,250 398,250 376,310 422,242 402,242 420,196" fill="#ffd66b" stroke="#e8b73e" stroke-width="3"/><g transform="translate(180,430) scale(1.4)"><circle cx="0" cy="-46" r="14" fill="#f3c39e"/><path d="M-14,-50 a14,14 0 0 1 28,0 l0,-6 a14,9 0 0 0 -28,0 z" fill="#5b3a23"/><rect x="-13" y="-32" width="26" height="34" rx="9" fill="#3f7fb5"/><rect x="-12" y="0" width="9" height="26" rx="4" fill="#41526b"/><rect x="3" y="0" width="9" height="26" rx="4" fill="#41526b"/></g><g transform="translate(620,430) scale(1.4)"><circle cx="0" cy="-46" r="14" fill="#f3c39e"/><path d="M-14,-50 a14,14 0 0 1 28,0 l0,-6 a14,9 0 0 0 -28,0 z" fill="#5b3a23"/><rect x="-13" y="-32" width="26" height="34" rx="9" fill="#c9556a"/><rect x="-12" y="0" width="9" height="26" rx="4" fill="#41526b"/><rect x="3" y="0" width="9" height="26" rx="4" fill="#41526b"/></g></svg>