<svg xmlns="http://www.w3.org/2000/svg" viewBox="0 0 800 450"><rect width="800" height="450" fill="#cfe9f7"/><g transform="translate(620,70) scale(0.9)" fill="#ffffff" opacity="0.9"><ellipse cx="0" cy="0" rx="46" ry="20"/><ellipse cx="-30" cy="8" rx="30" ry="14"/><ellipse cx="32" cy="8" rx="34" ry="15"/></g><circle cx="90" cy="80" r="30" fill="#ffd66b"/><circle cx="90" cy="80" r="44" fill="#ffd66b" opacity=".25"/><ellipse cx="400" cy="480" rx="600" ry="150" fill="#a8d88f"/><g transform="translate(120,300) scale(1.2)"><polygon points="0,-70 26,-18 -26,-18" fill="#3e7d5a"/><polygon points="0,-44 32,14 -32,14" fill="#3e7d5a"/><rect x="-5" y="14" width="10" height="16" fill="#7a5536"/></g><g transform="translate(200,320) scale(0.9)"><polygon points="0,-70 26,-18 -26,-18" fill="#3e7d5a"/><polygon points="0,-44 32,14 -32,14" fill="#3e7d5a"/><rect x="-5" y="14" width="10" height="16" fill="#7a5536"/></g><g transform="translate(700,310) scale(1.1)"><polygon points="0,-70 26,-18 -26,-18" fill="#3e7d5a"/><polygon points="0,-44 32,14 -32,14" fill="#3e7d5a"/><rect x="-5" y="14" width="10" height="16" fill="#7a5536"/></g><g transform="translate(440,330)"><path d="M-60,40 q-50,-10 -44,-62 q4,-34 44,-44 q10,-30 34,-30 q24,0 34,30 q40,10 44,44 q6,52 -44,62 z" fill="#e07b39" opacity="0"/><path d="M-30,40 q-26,-66 24,-96 q56,-30 84,18 q16,30 4,78 z" fill="#e07b39"/><path d="M22,40 q4,-44 36,-58 q14,28 6,58 z" fill="#f2e2cf"/><g transform="translate(-26,-78)"><polygon points="-34,-26 -22,-58 -2,-30" fill="#e07b39"/><polygon points="34,-26 22,-58 2,-30" fill="#e07b39"/><polygon points="-28,-32 -22,-48 -12,-34" fill="#5e4534"/><polygon points="28,-32 22,-48 12,-34" fill="#5e4534"/><circle cx="0" cy="-8" r="34" fill="#e07b39"/><path d="M-18,2 q18,26 36,0 q-6,22 -18,22 q-12,0 -18,-22" fill="#f2e2cf"/><circle cx="-12" cy="-12" r="4.5" fill="#3a2d20"/><circle cx="12" cy="-12" r="4.5" fill="#3a2d20"/><circle cx="0" cy="4" r="6" fill="#3a2d20"/></g><path d="M64,36 q66,6 78,-48 q4,-20 -12,-26 q4,30 -28,40 q-26,8 -38,34 z" fill="#e07b39"/><path d="M120,-30 q14,4 10,18 q-6,22 -28,26 q14,-22 18,-44" fill="#f2e2cf"/><ellipse cx="10" cy="44" rx="92" ry="9" fill="#88b873"/></g></svg>