<svg xmlns="http://www.w3.org/2000/svg" viewBox="0 0 800 450"><rect width="800" height="450" fill="#2c2438"/><rect width="800" height="450" fill="#2c2438"/><rect x="60" y="60" width="680" height="330" fill="#3a3050"/><rect x="0" y="360" width="800" height="90" fill="#241d30"/><line x1="80" y1="450" x2="140" y2="360" stroke="#312846" stroke-width="3"/><line x1="210" y1="450" x2="270" y2="360" stroke="#312846" stroke-width="3"/><line x1="340" y1="450" x2="400" y2="360" stroke="#312846" stroke-width="3"/><line x1="470" y1="450" x2="530" y2="360" stroke="#312846" stroke-width="3"/><line x1="600" y1="450" x2="660" y2="360" stroke="#312846" stroke-width="3"/><line x1="730" y1="450" x2="790" y2="360" stroke="#312846" stroke-width="3"/><g transform="translate(400,360)"><rect x="-95" y="-260" width="190" height="260" fill="#1c1626"/><polygon points="-20,-252 90,-260 90,0 -20,0" fill="#fff3c4" opacity=".9"/><polygon points="-20,-252 -78,-246 -78,-6 -20,0" fill="#5e8c5a"/><polygon points="-72,-240 -26,-244 -26,-8 -72,-12" fill="#4e7a4c"/><circle cx="-34" cy="-120" r="7" fill="#caa05a"/><polygon points="-20,0 90,0 220,80 30,80" fill="#fff3c4" opacity=".35"/></g><g transform="translate(580,400) rotate(18)" fill="#caa05a"><circle cx="-26" cy="0" r="13" fill="none" stroke="#caa05a" stroke-width="7"/><rect x="-12" y="-4" width="52" height="8" rx="3"/><rect x="26" y="2" width="7" height="12"/><rect x="36" y="2" width="7" height="9"/></g><g stroke="#5a4d75" stroke-width="2" fill="none"><path d="M60,60 l70,54 M60,60 l38,80 M60,60 l96,28 M84,96 q24,-10 44,4 M70,128 q30,-18 70,-6"/></g></svg>