<svg xmlns="http://www.w3.org/2000/svg" viewBox="0 0 800 450"><rect width="800" height="450" fill="#1c1430"/><rect width="800" height="450" fill="#1c1430"/><rect x="200" y="50" width="400" height="150" rx="10" fill="#3b2d63" stroke="#6d5bb8" stroke-width="5"/><polygon points="260,160 330,90 390,140 470,80 540,150" fill="none" stroke="#6fe3c1" stroke-width="7" stroke-linecap="round" stroke-linejoin="round"/><circle cx="540" cy="150" r="9" fill="#6fe3c1"/><circle cx="330" cy="90" r="9" fill="#e85d8a"/><polygon points="160,200 640,200 720,450 80,450" fill="#27204a"/><g transform="translate(260,330)"><rect x="-70" y="0" width="140" height="14" rx="4" fill="#3b2d63"/><rect x="-60" y="14" width="12" height="60" fill="#322757"/><rect x="48" y="14" width="12" height="60" fill="#322757"/><rect x="-44" y="-28" width="62" height="30" rx="4" fill="#0e0a1c" stroke="#6fe3c1" stroke-width="3"/><g transform="translate(40,0) scale(0.85)"><circle cx="0" cy="-46" r="14" fill="#f3c39e"/><path d="M-14,-50 a14,14 0 0 1 28,0 l0,-6 a14,9 0 0 0 -28,0 z" fill="#5b3a23"/><rect x="-13" y="-32" width="26" height="34" rx="9" fill="#6fe3c1"/><rect x="-12" y="0" width="9" height="26" rx="4" fill="#41526b"/><rect x="3" y="0" width="9" height="26" rx="4" fill="#41526b"/></g></g><g transform="translate(460,330)"><rect x="-70" y="0" width="140" height="14" rx="4" fill="#3b2d63"/><rect x="-60" y="14" width="12" height="60" fill="#322757"/><rect x="48" y="14" width="12" height="60" fill="#322757"/><rect x="-44" y="-28" width="62" height="30" rx="4" fill="#0e0a1c" stroke="#e85d8a" stroke-width="3"/><g transform="translate(40,0) scale(0.85)"><circle cx="0" cy="-46" r="14" fill="#f3c39e"/><path d="M-14,-50 a14,14 0 0 1 28,0 l0,-6 a14,9 0 0 0 -28,0 z" fill="#5b3a23"/><rect x="-13" y="-32" width="26" height="34" rx="9" fill="#e85d8a"/><rect x="-12" y="0" width="9" height="26" rx="4" fill="#41526b"/><rect x="3" y="0" width="9" height="26" rx="4" fill="#41526b"/></g></g><circle cx="60" cy="424" r="11" fill="#0e0a1c"/><circle cx="106" cy="434" r="11" fill="#0e0a1c"/><circle cx="152" cy="424" r="11" fill="#0e0a1c"/><circle cx="198" cy="434" r="11" fill="#0e0a1c"/><circle cx="244" cy="424" r="11" fill="#0e0a1c"/><circle cx="290" cy="434" r="11" fill="#0e0a1c"/><circle cx="336" cy="424" r="11" fill="#0e0a1c"/><circle cx="382" cy="434" r="11" fill="#0e0a1c"/><circle cx="428" cy="424" r="11" fill="#0e0a1c"/><circle cx="474" cy="434" r="11" fill="#0e0a1c"/><circle cx="520" cy="424" r="11" fill="#0e0a1c"/><circle cx="566" cy="434" r="11" fill="#0e0a1c"/><circle cx="612" cy="424" r="11" fill="#0e0a1c"/><circle cx="658" cy="434" r="11" fill="#0e0a1c"/><circle cx="704" cy="424" r="11" fill="#0e0a1c"/><circle cx="750" cy="434" r="11" fill="#0e0a1c"/><polygon points="120,0 200,0 320,200 240,200" fill="#6fe3c1" opacity=".1"/><polygon points="680,0 600,0 480,200 560,200" fill="#e85d8a" opacity=".1"/></svg>