<svg xmlns="http://www.w3.org/2000/svg" viewBox="0 0 800 450"><rect width="800" height="450" fill="#cfe9f7"/><circle cx="110" cy="80" r="38" fill="#ffd66b"/><circle cx="110" cy="80" r="52" fill="#ffd66b" opacity=".25"/><g transform="translate(620,70) scale(0.9)" fill="#ffffff" opacity="0.9"><ellipse cx="0" cy="0" rx="46" ry="20"/><ellipse cx="-30" cy="8" rx="30" ry="14"/><ellipse cx="32" cy="8" rx="34" ry="15"/></g><ellipse cx="400" cy="490" rx="600" ry="150" fill="#a8d88f"/><path d="M0,250 q200,-30 380,-10 q60,6 120,30" stroke="#7a5536" stroke-width="16" fill="none" stroke-linecap="round"/><path d="M300,238 q10,-30 -10,-46 M420,244 q16,-22 6,-44" stroke="#7a5536" stroke-width="8" fill="none" stroke-linecap="round"/><g transform="translate(360,222)"><path d="M-64,0 a64,34 0 0 0 128,0 z" fill="#8a6038"/><line x1="-56" y1="2" x2="-44" y2="26" stroke="#6b4a2e" stroke-width="4" stroke-linecap="round"/><line x1="-40" y1="2" x2="-28" y2="26" stroke="#6b4a2e" stroke-width="4" stroke-linecap="round"/><line x1="-24" y1="2" x2="-12" y2="26" stroke="#6b4a2e" stroke-width="4" stroke-linecap="round"/><line x1="-8" y1="2" x2="4" y2="26" stroke="#6b4a2e" stroke-width="4" stroke-linecap="round"/><line x1="8" y1="2" x2="20" y2="26" stroke="#6b4a2e" stroke-width="4" stroke-linecap="round"/><line x1="24" y1="2" x2="36" y2="26" stroke="#6b4a2e" stroke-width="4" stroke-linecap="round"/><line x1="40" y1="2" x2="52" y2="26" stroke="#6b4a2e" stroke-width="4" stroke-linecap="round"/><line x1="56" y1="2" x2="68" y2="26" stroke="#6b4a2e" stroke-width="4" stroke-linecap="round"/></g><g transform="translate(360,196)"><ellipse cx="0" cy="0" rx="30" ry="24" fill="#b08e5e"/><circle cx="18" cy="-18" r="16" fill="#b08e5e"/><polygon points="32,-20 48,-15 32,-10" fill="#e8a13e"/><circle cx="22" cy="-21" r="3.5" fill="#2d2a26"/><path d="M-26,-6 q-12,-4 -16,4 q8,8 18,4 z" fill="#9a7a4e"/></g><g transform="translate(580,110)"><ellipse cx="0" cy="0" rx="26" ry="16" fill="#7a5b3a"/><circle cx="22" cy="-8" r="11" fill="#7a5b3a"/><polygon points="32,-9 46,-5 32,-1" fill="#e8a13e"/><circle cx="25" cy="-10" r="2.5" fill="#2d2a26"/><path d="M-6,-8 q-16,-26 8,-30 q8,16 -8,30" fill="#8d6b44"/><path d="M-24,2 q-18,2 -26,12 q12,8 28,0 z" fill="#8d6b44"/></g><ellipse cx="640" cy="146" rx="5" ry="4" fill="#5da06f"/></svg>