<svg xmlns="http://www.w3.org/2000/svg" viewBox="0 0 800 450"><rect width="800" height="450" fill="#efe3c8"/><rect width="800" height="450" fill="#efe3c8"/><rect x="90" y="90" width="620" height="270" rx="10" fill="#f7eed8" stroke="#d8c7a0" stroke-width="3"/><g transform="translate(400,250)"><path d="M-230,60 q115,-34 230,0 q115,-34 230,0 l0,-150 q-115,-34 -230,0 q-115,-34 -230,0 z" fill="#fdf6e3" stroke="#c9b890" stroke-width="4"/><line x1="0" y1="-66" x2="0" y2="58" stroke="#c9b890" stroke-width="4"/><line x1="-196" y1="-44" x2="-36" y2="-50" stroke="#b9a986" stroke-width="5" stroke-linecap="round"/><line x1="36" y1="-50" x2="196" y2="-44" stroke="#b9a986" stroke-width="5" stroke-linecap="round"/><line x1="-196" y1="-18" x2="-36" y2="-24" stroke="#b9a986" stroke-width="5" stroke-linecap="round"/><line x1="36" y1="-24" x2="196" y2="-18" stroke="#b9a986" stroke-width="5" stroke-linecap="round"/><line x1="-196" y1="8" x2="-36" y2="2" stroke="#b9a986" stroke-width="5" stroke-linecap="round"/><line x1="36" y1="2" x2="196" y2="8" stroke="#b9a986" stroke-width="5" stroke-linecap="round"/><line x1="-196" y1="34" x2="-36" y2="28" stroke="#b9a986" stroke-width="5" stroke-linecap="round"/><line x1="36" y1="28" x2="196" y2="34" stroke="#b9a986" stroke-width="5" stroke-linecap="round"/></g><g transform="translate(400,210)" stroke="#6b5436" stroke-width="8" fill="rgba(190,220,235,.5)"><circle cx="-62" cy="0" r="50"/><circle cx="62" cy="0" r="50"/><path d="M-12,0 q12,-16 24,0" fill="none"/></g></svg>