<svg xmlns="http://www.w3.org/2000/svg" viewBox="0 0 800 450"><rect width="800" height="450" fill="#cfe9f7"/><circle cx="690" cy="80" r="38" fill="#ffd66b"/><circle cx="690" cy="80" r="52" fill="#ffd66b" opacity=".25"/><g transform="translate(160,70) scale(1)" fill="#ffffff" opacity="0.9"><ellipse cx="0" cy="0" rx="46" ry="20"/><ellipse cx="-30" cy="8" rx="30" ry="14"/><ellipse cx="32" cy="8" rx="34" ry="15"/></g><g transform="translate(420,110) scale(0.7)" fill="#ffffff" opacity="0.9"><ellipse cx="0" cy="0" rx="46" ry="20"/><ellipse cx="-30" cy="8" rx="30" ry="14"/><ellipse cx="32" cy="8" rx="34" ry="15"/></g><ellipse cx="400" cy="470" rx="600" ry="150" fill="#a8d88f"/><ellipse cx="400" cy="520" rx="600" ry="170" fill="#8fcb78"/><rect x="120" y="250" width="18" height="80" fill="#7a5536"/><circle cx="129" cy="225" r="55" fill="#5da06f"/><circle cx="95" cy="250" r="38" fill="#6cb27e"/><circle cx="165" cy="250" r="38" fill="#6cb27e"/><g transform="translate(560,350) scale(1.25)"><circle cx="0" cy="-46" r="14" fill="#f3c39e"/><path d="M-14,-50 a14,14 0 0 1 28,0 l0,-6 a14,9 0 0 0 -28,0 z" fill="#5b3a23"/><rect x="-13" y="-32" width="26" height="34" rx="9" fill="#e8694a"/><rect x="-12" y="0" width="9" height="26" rx="4" fill="#41526b"/><rect x="3" y="0" width="9" height="26" rx="4" fill="#41526b"/></g><path d="M545,318 Q470,330 415,352" stroke="#c0392b" stroke-width="5" fill="none" stroke-linecap="round"/><g transform="translate(360,360)"><ellipse cx="0" cy="0" rx="52" ry="30" fill="#9a6b3f"/><circle cx="48" cy="-18" r="22" fill="#9a6b3f"/><path d="M36,-34 q-4,-16 8,-22 q6,12 2,20 z" fill="#7a5230"/><path d="M62,-32 q10,-12 18,-8 q0,12 -10,16 z" fill="#7a5230"/><circle cx="56" cy="-20" r="3.5" fill="#2d2a26"/><circle cx="68" cy="-13" r="5" fill="#2d2a26"/><path d="M-48,-6 q-22,-6 -18,-26 q16,2 22,16 z" fill="#9a6b3f"/><rect x="-30" y="22" width="11" height="22" rx="5" fill="#83592f"/><rect x="14" y="22" width="11" height="22" rx="5" fill="#83592f"/></g></svg>