<svg xmlns="http://www.w3.org/2000/svg" viewBox="0 0 800 450"><rect width="800" height="450" fill="#cfe9f7"/><circle cx="680" cy="80" r="38" fill="#ffd66b"/><circle cx="680" cy="80" r="52" fill="#ffd66b" opacity=".25"/><g transform="translate(180,70) scale(0.9)" fill="#ffffff" opacity="0.9"><ellipse cx="0" cy="0" rx="46" ry="20"/><ellipse cx="-30" cy="8" rx="30" ry="14"/><ellipse cx="32" cy="8" rx="34" ry="15"/></g><ellipse cx="400" cy="470" rx="600" ry="150" fill="#a8d88f"/><ellipse cx="400" cy="520" rx="600" ry="170" fill="#8fcb78"/><circle cx="610" cy="372" r="22" fill="#e8694a"/><path d="M588,372 a22,22 0 0 1 44,0" fill="none" stroke="#fff" stroke-width="3"/><g transform="translate(330,300)"><ellipse cx="0" cy="86" rx="120" ry="16" fill="#88b873"/><path d="M70,30 q56,-10 64,-56 q14,16 2,40 q-14,28 -56,40 z" fill="#caa06a"/><path d="M-44,84 q-30,-70 18,-104 q56,-34 92,18 q20,40 6,86 z" fill="#caa06a"/><path d="M30,84 q6,-50 40,-66 q14,30 4,66 z" fill="#e3cba0"/><g transform="translate(-44,-46)"><circle cx="0" cy="0" r="42" fill="#caa06a"/><path d="M-38,-18 q-22,-26 -8,-50 q26,8 30,40 z" fill="#a87f48"/><path d="M38,-18 q22,-26 8,-50 q-26,8 -30,40 z" fill="#a87f48"/><ellipse cx="0" cy="14" rx="26" ry="22" fill="#e3cba0"/><circle cx="-14" cy="-6" r="5" fill="#3a2d20"/><circle cx="14" cy="-6" r="5" fill="#3a2d20"/><ellipse cx="0" cy="10" rx="8" ry="6" fill="#3a2d20"/><path d="M0,16 q0,12 -10,14 M0,16 q0,12 10,14" stroke="#3a2d20" stroke-width="3" fill="none"/><path d="M2,22 q14,4 22,-2" stroke="#c0392b" stroke-width="4" fill="none" stroke-linecap="round"/></g></g></svg>