<svg xmlns="http://www.w3.org/2000/svg" viewBox="0 0 800 450"><rect width="800" height="450" fill="#f7e2c4"/><rect width="800" height="450" fill="#f7e2c4"/><circle cx="110" cy="90" r="34" fill="#ffb45e"/><circle cx="110" cy="90" r="48" fill="#ffb45e" opacity=".25"/><ellipse cx="400" cy="470" rx="600" ry="160" fill="#d9b380"/><ellipse cx="400" cy="520" rx="600" ry="170" fill="#c89e69"/><ellipse cx="640" cy="370" rx="26" ry="11" fill="#d97f43" transform="rotate(-15 640 370)"/><ellipse cx="700" cy="395" rx="22" ry="9" fill="#c96a35" transform="rotate(10 700 395)"/><ellipse cx="140" cy="400" rx="24" ry="10" fill="#d97f43" transform="rotate(8 140 400)"/><g transform="translate(400,330)"><polygon points="-52.99725969563033,-19.43697638175099 -113.06082068401138,-37.465549614402114 -42.29698566519337,-21.380674019926094" fill="#6b4a2e"/><polygon points="-47.804222372889164,-28.75694104879343 -101.98234106216356,-57.34814090409265 -36.58464461017809,-31.632635153672776" fill="#6b4a2e"/><polygon points="-40.724942739069796,-36.942224379105696 -86.8798778433489,-74.81007867542549 -28.79743701297678,-40.636446817016264" fill="#6b4a2e"/><polygon points="-32.03875253757143,-43.66985432169686 -68.34933874681907,-89.16235588628665 -19.24262779132858,-48.03683975386655" fill="#6b4a2e"/><polygon points="-22.088388427769868,-48.674374403872825 -47.12189531257572,-99.83866539492871 -8.297227270546855,-53.54181184426012" fill="#6b4a2e"/><polygon points="-11.266468401610195,-51.75831802002691 -24.035132590101753,-106.41774510939075 3.6068847582287837,-56.9341498220296" fill="#6b4a2e"/><polygon points="-3.4902433775699565e-15,-52.8 -7.445852538815907e-15,-108.64 15.999999999999996,-58.080000000000005" fill="#6b4a2e"/><polygon points="11.26646840161019,-51.75831802002691 24.03513259010174,-106.41774510939075 28.39311524177121,-56.9341498220296" fill="#6b4a2e"/><polygon points="22.08838842776987,-48.674374403872825 47.121895312575724,-99.83866539492871 40.297227270546855,-53.54181184426012" fill="#6b4a2e"/><polygon points="32.038752537571426,-43.66985432169688 68.34933874681904,-89.16235588628668 51.24262779132857,-48.03683975386657" fill="#6b4a2e"/><polygon points="40.724942739069775,-36.9422243791057 86.87987784334886,-74.8100786754255 60.79743701297676,-40.63644681701628" fill="#6b4a2e"/><polygon points="47.804222372889164,-28.756941048793443 101.98234106216356,-57.34814090409268 68.58464461017809,-31.63263515367279" fill="#6b4a2e"/><polygon points="52.99725969563033,-19.436976381750984 113.06082068401138,-37.4655496144021 74.29698566519338,-21.380674019926083" fill="#6b4a2e"/><path d="M-95,10 a95,80 0 0 1 190,0 z" fill="#8a6038"/><path d="M70,10 q44,-26 58,-2 q4,8 -6,12 l-122,0 z" fill="#caa274"/><circle cx="122" cy="12" r="6" fill="#3a2d20"/><circle cx="92" cy="0" r="4" fill="#3a2d20"/></g><circle cx="560" cy="385" r="22" fill="#d8503f"/><rect x="557" y="356" width="5" height="12" rx="2" fill="#6b4a2e"/><ellipse cx="572" cy="360" rx="9" ry="5" fill="#5da06f" transform="rotate(-25 572 360)"/></svg>