<svg xmlns="http://www.w3.org/2000/svg" viewBox="0 0 800 450"><rect width="800" height="450" fill="#cfe9f7"/><circle cx="100" cy="80" r="38" fill="#ffd66b"/><circle cx="100" cy="80" r="52" fill="#ffd66b" opacity=".25"/><g transform="translate(650,70) scale(0.9)" fill="#ffffff" opacity="0.9"><ellipse cx="0" cy="0" rx="46" ry="20"/><ellipse cx="-30" cy="8" rx="30" ry="14"/><ellipse cx="32" cy="8" rx="34" ry="15"/></g><ellipse cx="400" cy="490" rx="600" ry="150" fill="#a8d88f"/><rect x="390" y="240" width="20" height="140" fill="#7a5536"/><g transform="translate(400,170)"><rect x="-110" y="-80" width="220" height="150" rx="8" fill="#b3854f" stroke="#8a6038" stroke-width="5"/><polygon points="-124,-80 0,-128 124,-80" fill="#8a6038"/><line x1="0" y1="-80" x2="0" y2="70" stroke="#8a6038" stroke-width="5"/><line x1="-110" y1="-6" x2="110" y2="-6" stroke="#8a6038" stroke-width="5"/><circle cx="-86" cy="-52" r="9" fill="#e8d9b8" stroke="#8a6038" stroke-width="3"/><circle cx="-62" cy="-52" r="9" fill="#e8d9b8" stroke="#8a6038" stroke-width="3"/><circle cx="-38" cy="-52" r="9" fill="#e8d9b8" stroke="#8a6038" stroke-width="3"/><circle cx="-14" cy="-52" r="9" fill="#e8d9b8" stroke="#8a6038" stroke-width="3"/><circle cx="-86" cy="-26" r="9" fill="#e8d9b8" stroke="#8a6038" stroke-width="3"/><circle cx="-62" cy="-26" r="9" fill="#e8d9b8" stroke="#8a6038" stroke-width="3"/><circle cx="-38" cy="-26" r="9" fill="#e8d9b8" stroke="#8a6038" stroke-width="3"/><circle cx="-14" cy="-26" r="9" fill="#e8d9b8" stroke="#8a6038" stroke-width="3"/><circle cx="22" cy="-50" r="11" fill="#d9b380" stroke="#8a6038" stroke-width="3"/><circle cx="52" cy="-50" r="11" fill="#d9b380" stroke="#8a6038" stroke-width="3"/><circle cx="82" cy="-50" r="11" fill="#d9b380" stroke="#8a6038" stroke-width="3"/><circle cx="22" cy="-22" r="11" fill="#d9b380" stroke="#8a6038" stroke-width="3"/><circle cx="52" cy="-22" r="11" fill="#d9b380" stroke="#8a6038" stroke-width="3"/><circle cx="82" cy="-22" r="11" fill="#d9b380" stroke="#8a6038" stroke-width="3"/><circle cx="-80" cy="30" r="13" fill="#6b4a2e"/><circle cx="-48" cy="38" r="11" fill="#7d5836"/><circle cx="-16" cy="28" r="13" fill="#6b4a2e"/><g stroke="#7d5836" stroke-width="5" stroke-linecap="round"><line x1="20" y1="14" x2="96" y2="20"/><line x1="22" y1="34" x2="98" y2="40"/><line x1="20" y1="54" x2="96" y2="58"/></g></g><g transform="translate(590,210)"><ellipse cx="0" cy="0" rx="20" ry="14" fill="#ffd66b"/><path d="M-8,-13 a14,14 0 0 1 0,27 M4,-14 a14,14 0 0 1 0,28" stroke="#3a3a3a" stroke-width="5" fill="none"/><ellipse cx="-4" cy="-18" rx="12" ry="7" fill="#cfe9f7" opacity=".85"/><circle cx="18" cy="-4" r="3" fill="#3a3a3a"/></g><path d="M610,230 q30,30 -10,60" stroke="#9db8cc" stroke-width="3" fill="none" stroke-dasharray="6 7"/><g transform="translate(120,390)"><line x1="0" y1="0" x2="0" y2="-34" stroke="#5da06f" stroke-width="4"/><circle cx="0" cy="-44" r="7" fill="#ffd66b"/><ellipse cx="13" cy="-44" rx="7" ry="5" fill="#e8829b"/><ellipse cx="4.017679141877004" cy="-31.63641418063002" rx="7" ry="5" fill="#e8829b"/><ellipse cx="-10.516654509680995" cy="-36.35801217457091" rx="7" ry="5" fill="#e8829b"/><ellipse cx="-10.518070444318862" cy="-51.640038882646216" rx="7" ry="5" fill="#e8829b"/><ellipse cx="4.015388011691321" cy="-56.36433011188093" rx="7" ry="5" fill="#e8829b"/></g><g transform="translate(190,410)"><line x1="0" y1="0" x2="0" y2="-34" stroke="#5da06f" stroke-width="4"/><circle cx="0" cy="-44" r="7" fill="#ffd66b"/><ellipse cx="13" cy="-44" rx="7" ry="5" fill="#e8829b"/><ellipse cx="4.017679141877004" cy="-31.63641418063002" rx="7" ry="5" fill="#e8829b"/><ellipse cx="-10.516654509680995" cy="-36.35801217457091" rx="7" ry="5" fill="#e8829b"/><ellipse cx="-10.518070444318862" cy="-51.640038882646216" rx="7" ry="5" fill="#e8829b"/><ellipse cx="4.015388011691321" cy="-56.36433011188093" rx="7" ry="5" fill="#e8829b"/></g><g transform="translate(680,395)"><line x1="0" y1="0" x2="0" y2="-34" stroke="#5da06f" stroke-width="4"/><circle cx="0" cy="-44" r="7" fill="#ffd66b"/><ellipse cx="13" cy="-44" rx="7" ry="5" fill="#e8829b"/><ellipse cx="4.017679141877004" cy="-31.63641418063002" rx="7" ry="5" fill="#e8829b"/><ellipse cx="-10.516654509680995" cy="-36.35801217457091" rx="7" ry="5" fill="#e8829b"/><ellipse cx="-10.518070444318862" cy="-51.640038882646216" rx="7" ry="5" fill="#e8829b"/><ellipse cx="4.015388011691321" cy="-56.36433011188093" rx="7" ry="5" fill="#e8829b"/></g></svg>