<svg xmlns="http://www.w3.org/2000/svg" viewBox="0 0 800 450"><rect width="800" height="450" fill="#e7f1f8"/><rect width="800" height="450" fill="#e7f1f8"/><circle cx="120" cy="80" r="30" fill="#ffe9a8"/><circle cx="120" cy="80" r="44" fill="#ffe9a8" opacity=".25"/><g transform="translate(620,180) scale(0.9)"><polygon points="0,-70 26,-18 -26,-18" fill="#7fa98e"/><polygon points="0,-44 32,14 -32,14" fill="#7fa98e"/><rect x="-5" y="14" width="10" height="16" fill="#7a5536"/></g><g transform="translate(680,190) scale(1.1)"><polygon points="0,-70 26,-18 -26,-18" fill="#6f9c80"/><polygon points="0,-44 32,14 -32,14" fill="#6f9c80"/><rect x="-5" y="14" width="10" height="16" fill="#7a5536"/></g><g transform="translate(740,185) scale(0.85)"><polygon points="0,-70 26,-18 -26,-18" fill="#7fa98e"/><polygon points="0,-44 32,14 -32,14" fill="#7fa98e"/><rect x="-5" y="14" width="10" height="16" fill="#7a5536"/></g><g transform="translate(60,190) scale(1)"><polygon points="0,-70 26,-18 -26,-18" fill="#7fa98e"/><polygon points="0,-44 32,14 -32,14" fill="#7fa98e"/><rect x="-5" y="14" width="10" height="16" fill="#7a5536"/></g><g transform="translate(130,182) scale(0.8)"><polygon points="0,-70 26,-18 -26,-18" fill="#8fb39c"/><polygon points="0,-44 32,14 -32,14" fill="#8fb39c"/><rect x="-5" y="14" width="10" height="16" fill="#7a5536"/></g><ellipse cx="400" cy="360" rx="380" ry="95" fill="#cfe6f3"/><ellipse cx="540" cy="335" rx="150" ry="38" fill="#7da6c4"/><ellipse cx="540" cy="335" rx="100" ry="24" fill="#5f8cb0"/><path d="M470,340 l28,-8 l-10,12 l30,-4 l-12,10" stroke="#dceefb" stroke-width="3" fill="none"/><g stroke="#c2a36b" stroke-width="5" stroke-linecap="round"><line x1="90" y1="400" x2="84" y2="330"/><line x1="112" y1="404" x2="112" y2="338"/><line x1="134" y1="400" x2="142" y2="336"/></g><ellipse cx="84" cy="324" rx="7" ry="16" fill="#8a6f48"/><ellipse cx="112" cy="332" rx="7" ry="16" fill="#8a6f48"/><g transform="translate(300,350) scale(1.1)"><circle cx="0" cy="-46" r="14" fill="#f3c39e"/><path d="M-14,-50 a14,14 0 0 1 28,0 l0,-6 a14,9 0 0 0 -28,0 z" fill="#5b3a23"/><rect x="-13" y="-32" width="26" height="34" rx="9" fill="#3f7fb5"/><rect x="-12" y="0" width="9" height="26" rx="4" fill="#41526b"/><rect x="3" y="0" width="9" height="26" rx="4" fill="#41526b"/></g><g transform="translate(520,318) scale(0.8)"><circle cx="0" cy="-46" r="14" fill="#f3c39e"/><path d="M-14,-50 a14,14 0 0 1 28,0 l0,-6 a14,9 0 0 0 -28,0 z" fill="#5b3a23"/><rect x="-13" y="-32" width="26" height="34" rx="9" fill="#d35d4e"/><rect x="-12" y="0" width="9" height="26" rx="4" fill="#41526b"/><rect x="3" y="0" width="9" height="26" rx="4" fill="#41526b"/></g><line x1="278" y1="380" x2="322" y2="380" stroke="#8aa9be" stroke-width="3"/><line x1="505" y1="340" x2="537" y2="340" stroke="#8aa9be" stroke-width="3"/></svg>