<svg xmlns="http://www.w3.org/2000/svg" viewBox="0 0 800 450"><rect width="800" height="450" fill="#f2a65e"/><rect width="800" height="450" fill="#f2a65e"/><rect x="0" y="0" width="800" height="160" fill="#ef9352"/><circle cx="400" cy="230" r="64" fill="#ffe27a"/><circle cx="400" cy="230" r="78" fill="#ffe27a" opacity=".25"/><rect x="0" y="270" width="800" height="180" fill="#3f6f8e"/><g stroke="#ffe27a" stroke-width="4" opacity=".6"><line x1="340" y1="300" x2="460" y2="300"/><line x1="360" y1="330" x2="440" y2="330"/><line x1="320" y1="370" x2="480" y2="370"/></g><rect x="0" y="240" width="800" height="34" fill="#5e6b7a"/><rect x="60" y="274" width="26" height="110" fill="#525d6b"/><rect x="220" y="274" width="26" height="124" fill="#525d6b"/><rect x="380" y="274" width="26" height="110" fill="#525d6b"/><rect x="540" y="274" width="26" height="124" fill="#525d6b"/><rect x="700" y="274" width="26" height="110" fill="#525d6b"/><g fill="#2d2a30"><g transform="translate(330,222)"><circle cx="0" cy="-34" r="13"/><rect x="-13" y="-22" width="26" height="30" rx="8"/><rect x="-12" y="8" width="9" height="34" rx="4"/><rect x="3" y="8" width="9" height="34" rx="4"/></g><g transform="translate(385,224)"><circle cx="0" cy="-30" r="11"/><rect x="-11" y="-20" width="22" height="26" rx="7"/><rect x="-10" y="6" width="8" height="30" rx="4"/><rect x="2" y="6" width="8" height="30" rx="4"/></g></g><g transform="translate(600,214)" fill="#2d2a30"><circle cx="-30" cy="14" r="14" fill="none" stroke="#2d2a30" stroke-width="6"/><circle cx="34" cy="14" r="14" fill="none" stroke="#2d2a30" stroke-width="6"/><path d="M-30,14 q10,-26 36,-22 l16,-12 q8,-2 10,6 l-6,10 q16,4 8,18" fill="none" stroke="#2d2a30" stroke-width="7" stroke-linecap="round"/><rect x="-6,-10" width="20" height="8"/></g><path d="M120,90 q10,-12 20,0 q10,-12 20,0 M620,60 q9,-10 18,0 q9,-10 18,0" stroke="#7a4a2d" stroke-width="4" fill="none" stroke-linecap="round"/></svg>