<svg xmlns="http://www.w3.org/2000/svg" viewBox="0 0 800 450"><rect width="800" height="450" fill="#4a3b56"/><rect width="800" height="450" fill="#4a3b56"/><g transform="translate(400,300)"><rect x="-260" y="-110" width="520" height="220" rx="6" fill="#d9c8a8"/><rect x="-180" y="-100" width="60" height="25" fill="#7a5a44"/><rect x="-60" y="-100" width="60" height="25" fill="#7a5a44"/><rect x="60" y="-100" width="60" height="25" fill="#7a5a44"/><rect x="180" y="-100" width="60" height="25" fill="#7a5a44"/><rect x="-240" y="-75" width="60" height="25" fill="#7a5a44"/><rect x="-120" y="-75" width="60" height="25" fill="#7a5a44"/><rect x="0" y="-75" width="60" height="25" fill="#7a5a44"/><rect x="120" y="-75" width="60" height="25" fill="#7a5a44"/><rect x="-180" y="-50" width="60" height="25" fill="#7a5a44"/><rect x="-60" y="-50" width="60" height="25" fill="#7a5a44"/><rect x="60" y="-50" width="60" height="25" fill="#7a5a44"/><rect x="180" y="-50" width="60" height="25" fill="#7a5a44"/><rect x="-240" y="-25" width="60" height="25" fill="#7a5a44"/><rect x="-120" y="-25" width="60" height="25" fill="#7a5a44"/><rect x="0" y="-25" width="60" height="25" fill="#7a5a44"/><rect x="120" y="-25" width="60" height="25" fill="#7a5a44"/><rect x="-180" y="0" width="60" height="25" fill="#7a5a44"/><rect x="-60" y="0" width="60" height="25" fill="#7a5a44"/><rect x="60" y="0" width="60" height="25" fill="#7a5a44"/><rect x="180" y="0" width="60" height="25" fill="#7a5a44"/><rect x="-240" y="25" width="60" height="25" fill="#7a5a44"/><rect x="-120" y="25" width="60" height="25" fill="#7a5a44"/><rect x="0" y="25" width="60" height="25" fill="#7a5a44"/><rect x="120" y="25" width="60" height="25" fill="#7a5a44"/><rect x="-180" y="50" width="60" height="25" fill="#7a5a44"/><rect x="-60" y="50" width="60" height="25" fill="#7a5a44"/><rect x="60" y="50" width="60" height="25" fill="#7a5a44"/><rect x="180" y="50" width="60" height="25" fill="#7a5a44"/><rect x="-240" y="75" width="60" height="25" fill="#7a5a44"/><rect x="-120" y="75" width="60" height="25" fill="#7a5a44"/><rect x="0" y="75" width="60" height="25" fill="#7a5a44"/><rect x="120" y="75" width="60" height="25" fill="#7a5a44"/></g><g transform="translate(310,210)" fill="#f5efe2"><rect x="-7" y="-92" width="14" height="8"/><rect x="-3" y="-100" width="6" height="22"/><rect x="-12" y="-96" width="24" height="6"/><path d="M-18,-72 q18,12 36,0 l-6,40 q-12,6 -24,0 z"/><ellipse cx="0" cy="-26" rx="22" ry="9"/><path d="M-24,-24 l8,44 q16,8 32,0 l8,-44 z"/><ellipse cx="0" cy="22" rx="30" ry="10"/></g><g transform="translate(490,190)" fill="#2d2433"><path d="M-22,40 q-8,-44 10,-72 q12,-22 36,-26 q4,8 -2,14 q18,2 22,18 q4,16 -10,18 q-12,2 -20,-6 q-4,18 4,54 z"/><ellipse cx="0" cy="44" rx="32" ry="10"/><circle cx="14" cy="-34" r="3.5" fill="#f5efe2"/></g><g transform="translate(650,120)"><ellipse cx="0" cy="26" rx="56" ry="14" fill="#f5efe2"/><circle cx="0" cy="0" r="36" fill="#b3854f"/><path d="M0,0 m-26,0 a26,26 0 1 1 52,0 a20,20 0 1 0 -40,0 a13,13 0 1 1 26,0" fill="none" stroke="#8a6038" stroke-width="8" stroke-linecap="round"/><circle cx="-12" cy="-14" r="2.5" fill="#fff"/><circle cx="10" cy="-18" r="2.5" fill="#fff"/><circle cx="18" cy="-2" r="2.5" fill="#fff"/></g></svg>