<svg xmlns="http://www.w3.org/2000/svg" viewBox="0 0 800 450"><rect width="800" height="450" fill="#f7e8d8"/><rect width="800" height="450" fill="#f7e8d8"/><rect x="0" y="330" width="800" height="120" fill="#c9756a"/><rect x="0" y="330" width="800" height="14" fill="#b56459"/><ellipse cx="380" cy="356" rx="190" ry="32" fill="#ffffff"/><ellipse cx="380" cy="349" rx="172" ry="26" fill="#eef2f5"/><ellipse cx="380" cy="334" rx="150" ry="20" fill="#d99c43"/><ellipse cx="380" cy="328" rx="150" ry="16" fill="#e3ad58"/><ellipse cx="380" cy="312" rx="142" ry="20" fill="#e8b35e"/><ellipse cx="380" cy="306" rx="142" ry="16" fill="#f0c478"/><ellipse cx="380" cy="290" rx="134" ry="20" fill="#d99c43"/><ellipse cx="380" cy="284" rx="134" ry="16" fill="#e3ad58"/><ellipse cx="380" cy="268" rx="126" ry="20" fill="#e8b35e"/><ellipse cx="380" cy="262" rx="126" ry="16" fill="#f0c478"/><ellipse cx="380" cy="246" rx="118" ry="20" fill="#d99c43"/><ellipse cx="380" cy="240" rx="118" ry="16" fill="#e3ad58"/><path d="M310,222 q70,-26 140,0 q-8,26 -30,30 q8,16 -12,22 q-30,10 -56,-2 q-22,-4 -28,-22 q-18,-8 -14,-28" fill="#c0392b"/><ellipse cx="380" cy="214" rx="26" ry="12" fill="#ffe9a8"/><g transform="translate(640,250) rotate(24)"><rect x="-10" y="-130" width="20" height="120" rx="8" fill="#7a5536"/><rect x="-34" y="-14" width="68" height="78" rx="14" fill="#9db8cc"/><line x1="-14" y1="6" x2="-14" y2="48" stroke="#7d99ad" stroke-width="6"/><line x1="14" y1="6" x2="14" y2="48" stroke="#7d99ad" stroke-width="6"/></g><g stroke="#cdb6a2" stroke-width="5" fill="none" stroke-linecap="round" opacity=".8"><path d="M330,180 q-10,-26 6,-44"/><path d="M380,170 q-10,-26 6,-44"/><path d="M430,180 q-10,-26 6,-44"/></g></svg>