<svg xmlns="http://www.w3.org/2000/svg" viewBox="0 0 800 450"><rect width="800" height="450" fill="#eadcf3"/><rect width="800" height="450" fill="#eadcf3"/><g transform="translate(400,250)"><path d="M-170,80 q85,-30 170,0 q85,-30 170,0 l0,-170 q-85,-30 -170,0 q-85,-30 -170,0 z" fill="#fdf6e3" stroke="#b9a0cc" stroke-width="5"/><line x1="0" y1="-96" x2="0" y2="78" stroke="#b9a0cc" stroke-width="5"/><line x1="-140" y1="-66" x2="-28" y2="-72" stroke="#cdbada" stroke-width="6" stroke-linecap="round"/><line x1="28" y1="-72" x2="140" y2="-66" stroke="#cdbada" stroke-width="6" stroke-linecap="round"/><line x1="-140" y1="-34" x2="-28" y2="-40" stroke="#cdbada" stroke-width="6" stroke-linecap="round"/><line x1="28" y1="-40" x2="140" y2="-34" stroke="#cdbada" stroke-width="6" stroke-linecap="round"/><line x1="-140" y1="-2" x2="-28" y2="-8" stroke="#cdbada" stroke-width="6" stroke-linecap="round"/><line x1="28" y1="-8" x2="140" y2="-2" stroke="#cdbada" stroke-width="6" stroke-linecap="round"/><line x1="-140" y1="30" x2="-28" y2="24" stroke="#cdbada" stroke-width="6" stroke-linecap="round"/><line x1="28" y1="24" x2="140" y2="30" stroke="#cdbada" stroke-width="6" stroke-linecap="round"/></g><path d="M180,260 q-30,-180 220,-190 q250,10 220,190" stroke="#5b4a73" stroke-width="16" fill="none" stroke-linecap="round"/><rect x="150" y="240" width="58" height="92" rx="26" fill="#5b4a73"/><rect x="592" y="240" width="58" height="92" rx="26" fill="#5b4a73"/><rect x="164" y="254" width="30" height="64" rx="14" fill="#8a76a8"/><rect x="606" y="254" width="30" height="64" rx="14" fill="#8a76a8"/><g stroke="#8a76a8" stroke-width="6" fill="none" stroke-linecap="round" opacity=".8"><path d="M110,250 q-16,36 0,72" /><path d="M76,236 q-26,52 0,104"/><path d="M690,250 q16,36 0,72"/><path d="M724,236 q26,52 0,104"/></g><g fill="#5b4a73" transform="translate(400,96)"><ellipse cx="-12" cy="14" rx="9" ry="7"/><rect x="-5" y="-22" width="4" height="36"/><path d="M-1,-22 q14,4 16,14 q-8,-4 -16,-6 z"/></g></svg>