<svg xmlns="http://www.w3.org/2000/svg" viewBox="0 0 800 450"><rect width="800" height="450" fill="#dceefb"/><g transform="translate(620,80) scale(0.9)" fill="#ffffff" opacity="0.9"><ellipse cx="0" cy="0" rx="46" ry="20"/><ellipse cx="-30" cy="8" rx="30" ry="14"/><ellipse cx="32" cy="8" rx="34" ry="15"/></g><ellipse cx="400" cy="480" rx="600" ry="150" fill="#d9c08a"/><rect x="382" y="220" width="36" height="140" rx="8" fill="#7a5536"/><path d="M392,236 q-14,-40 8,-66" stroke="#7a5536" stroke-width="12" fill="none"/><circle cx="330" cy="170" r="62" fill="#5da06f"/><circle cx="282" cy="216" r="44" fill="#6cb27e"/><circle cx="372" cy="120" r="48" fill="#5da06f"/><circle cx="470" cy="170" r="62" fill="#e0913f"/><circle cx="518" cy="216" r="44" fill="#d8743a"/><circle cx="438" cy="120" r="48" fill="#e7a84e"/><g fill="#d8743a"><ellipse cx="560" cy="270" rx="13" ry="6" transform="rotate(30 560 270)"/><ellipse cx="600" cy="330" rx="13" ry="6" transform="rotate(-20 600 330)"/><ellipse cx="540" cy="380" rx="13" ry="6" transform="rotate(15 540 380)"/></g><g fill="#e7a84e"><ellipse cx="640" cy="290" rx="12" ry="6" transform="rotate(-35 640 290)"/><ellipse cx="170" cy="396" rx="14" ry="6"/><ellipse cx="620" cy="400" rx="14" ry="6" transform="rotate(10 620 400)"/></g></svg>