<svg xmlns="http://www.w3.org/2000/svg" viewBox="0 0 800 450"><rect width="800" height="450" fill="#dceefb"/><ellipse cx="400" cy="490" rx="600" ry="150" fill="#a8d88f"/><circle cx="710" cy="80" r="30" fill="#ffd66b"/><circle cx="710" cy="80" r="44" fill="#ffd66b" opacity=".25"/><g transform="translate(250,250) rotate(-12)"><polygon points="0,-44 110,-86 110,86 0,44" fill="#e8694a"/><rect x="-60" y="-44" width="64" height="88" rx="16" fill="#d35d3f"/><rect x="-34" y="44" width="26" height="56" rx="8" fill="#b14e35"/><circle cx="110" cy="0" r="14" fill="#b14e35"/></g><g stroke="#e8694a" stroke-width="7" fill="none" stroke-linecap="round" opacity=".75"><path d="M400,160 q26,60 0,120"/><path d="M440,135 q40,84 0,168"/><path d="M480,110 q54,108 0,216"/></g><g><rect x="520" y="120" width="150" height="64" rx="18" fill="#ffffff"/><polygon points="560,184 580,184 552,210" fill="#ffffff"/><circle cx="560" cy="152" r="7" fill="#3f7fb5"/><circle cx="592" cy="152" r="7" fill="#3f7fb5"/><circle cx="624" cy="152" r="7" fill="#3f7fb5"/></g><g><rect x="560" y="240" width="120" height="56" rx="16" fill="#ffd66b"/><polygon points="596,296 614,296 590,318" fill="#ffd66b"/><text x="620" y="278" font-family="Georgia,serif" font-size="34" font-weight="bold" fill="#7a5a16" text-anchor="middle">!</text></g></svg>