<svg xmlns="http://www.w3.org/2000/svg" viewBox="0 0 800 450"><rect width="800" height="450" fill="#cfe9f7"/><circle cx="100" cy="80" r="38" fill="#ffd66b"/><circle cx="100" cy="80" r="52" fill="#ffd66b" opacity=".25"/><g transform="translate(600,70) scale(0.9)" fill="#ffffff" opacity="0.9"><ellipse cx="0" cy="0" rx="46" ry="20"/><ellipse cx="-30" cy="8" rx="30" ry="14"/><ellipse cx="32" cy="8" rx="34" ry="15"/></g><ellipse cx="400" cy="480" rx="600" ry="160" fill="#a8d88f"/><path d="M250,380 q150,-190 300,0 z" fill="#9a7146"/><line x1="300" y1="382" x2="330" y2="354" stroke="#7d5836" stroke-width="3"/><line x1="330" y1="380" x2="358" y2="336" stroke="#7d5836" stroke-width="3"/><line x1="360" y1="378" x2="386" y2="318" stroke="#7d5836" stroke-width="3"/><line x1="390" y1="376" x2="414" y2="300" stroke="#7d5836" stroke-width="3"/><line x1="420" y1="378" x2="442" y2="318" stroke="#7d5836" stroke-width="3"/><line x1="450" y1="380" x2="470" y2="336" stroke="#7d5836" stroke-width="3"/><line x1="480" y1="382" x2="498" y2="354" stroke="#7d5836" stroke-width="3"/><ellipse cx="400" cy="382" rx="170" ry="10" fill="#88b873"/><g transform="translate(120,395) scale(1)"><ellipse cx="-16" cy="0" rx="12" ry="9" fill="#42302a"/><circle cx="0" cy="-2" r="7" fill="#42302a"/><ellipse cx="14" cy="0" rx="10" ry="8" fill="#42302a"/><line x1="-6" y1="4" x2="-14" y2="14" stroke="#42302a" stroke-width="2.5"/><line x1="0" y1="5" x2="2" y2="15" stroke="#42302a" stroke-width="2.5"/><line x1="8" y1="4" x2="16" y2="13" stroke="#42302a" stroke-width="2.5"/><line x1="2" y1="-8" x2="8" y2="-16" stroke="#42302a" stroke-width="2"/></g><g transform="translate(600,400) scale(0.85)"><ellipse cx="-16" cy="0" rx="12" ry="9" fill="#42302a"/><circle cx="0" cy="-2" r="7" fill="#42302a"/><ellipse cx="14" cy="0" rx="10" ry="8" fill="#42302a"/><line x1="-6" y1="4" x2="-14" y2="14" stroke="#42302a" stroke-width="2.5"/><line x1="0" y1="5" x2="2" y2="15" stroke="#42302a" stroke-width="2.5"/><line x1="8" y1="4" x2="16" y2="13" stroke="#42302a" stroke-width="2.5"/><line x1="2" y1="-8" x2="8" y2="-16" stroke="#42302a" stroke-width="2"/></g><g transform="translate(680,360) scale(0.7)"><ellipse cx="-16" cy="0" rx="12" ry="9" fill="#42302a"/><circle cx="0" cy="-2" r="7" fill="#42302a"/><ellipse cx="14" cy="0" rx="10" ry="8" fill="#42302a"/><line x1="-6" y1="4" x2="-14" y2="14" stroke="#42302a" stroke-width="2.5"/><line x1="0" y1="5" x2="2" y2="15" stroke="#42302a" stroke-width="2.5"/><line x1="8" y1="4" x2="16" y2="13" stroke="#42302a" stroke-width="2.5"/><line x1="2" y1="-8" x2="8" y2="-16" stroke="#42302a" stroke-width="2"/></g><path d="M70,400 q4,-26 -6,-38 M82,400 q2,-20 10,-30" stroke="#5da06f" stroke-width="4" fill="none" stroke-linecap="round"/><path d="M730,420 q4,-26 -6,-38 M742,420 q2,-20 10,-30" stroke="#5da06f" stroke-width="4" fill="none" stroke-linecap="round"/></svg>