<svg xmlns="http://www.w3.org/2000/svg" viewBox="0 0 800 450"><rect width="800" height="450" fill="#ddeae4"/><rect width="800" height="450" fill="#ddeae4"/><g transform="translate(290,260)"><path d="M-90,140 q-50,-40 -44,-120 q6,-90 100,-104 q96,-14 124,62 q12,34 -2,66 q22,10 14,30 q-6,12 -22,12 q6,18 -8,26 q-10,6 -24,2 q2,22 -20,26 q-44,8 -50,-22 q-36,4 -68,22 z" fill="#f3c39e"/><path d="M-94,-58 q30,-66 110,-66 q66,0 88,44 q-66,-18 -120,4 q-50,20 -78,18" fill="#5b3a23"/></g><circle cx="430" cy="170" r="9" fill="#fff"/><circle cx="466" cy="130" r="13" fill="#fff"/><g><circle cx="560" cy="90" r="52" fill="#fff"/><text x="560" y="108" font-family="Georgia,serif" font-size="52" font-weight="bold" fill="#3f7fb5" text-anchor="middle">?</text></g><g><circle cx="660" cy="200" r="44" fill="#fff"/><text x="660" y="216" font-family="Georgia,serif" font-size="44" font-weight="bold" fill="#c9556a" text-anchor="middle">?</text></g><g><circle cx="600" cy="320" r="38" fill="#fff"/><text x="600" y="334" font-family="Georgia,serif" font-size="38" font-weight="bold" fill="#5e8c5a" text-anchor="middle">!</text></g><path d="M560,142 q40,20 76,18 M640,238 q-20,44 -40,46" stroke="#9db8cc" stroke-width="4" fill="none" stroke-dasharray="6 8"/></svg>