<svg xmlns="http://www.w3.org/2000/svg" viewBox="0 0 800 450"><rect width="800" height="450" fill="#cfe9f7"/><rect width="800" height="450" fill="#cfe9f7"/><polygon points="300,0 360,0 280,450 200,450" fill="#fff7d6" opacity=".4"/><polygon points="420,0 470,0 520,450 440,450" fill="#fff7d6" opacity=".3"/><ellipse cx="400" cy="470" rx="600" ry="160" fill="#7fae6e"/><path d="M340,450 q60,-150 60,-260 q0,150 60,260 z" fill="#d9c08a"/><g transform="translate(120,300) scale(1.6)"><polygon points="0,-70 26,-18 -26,-18" fill="#3e7d5a"/><polygon points="0,-44 32,14 -32,14" fill="#3e7d5a"/><rect x="-5" y="14" width="10" height="16" fill="#7a5536"/></g><g transform="translate(220,330) scale(1.2)"><polygon points="0,-70 26,-18 -26,-18" fill="#4a8c66"/><polygon points="0,-44 32,14 -32,14" fill="#4a8c66"/><rect x="-5" y="14" width="10" height="16" fill="#7a5536"/></g><g transform="translate(680,300) scale(1.6)"><polygon points="0,-70 26,-18 -26,-18" fill="#3e7d5a"/><polygon points="0,-44 32,14 -32,14" fill="#3e7d5a"/><rect x="-5" y="14" width="10" height="16" fill="#7a5536"/></g><g transform="translate(590,335) scale(1.2)"><polygon points="0,-70 26,-18 -26,-18" fill="#4a8c66"/><polygon points="0,-44 32,14 -32,14" fill="#4a8c66"/><rect x="-5" y="14" width="10" height="16" fill="#7a5536"/></g><g transform="translate(710,360) scale(1)"><polygon points="0,-70 26,-18 -26,-18" fill="#4a8c66"/><polygon points="0,-44 32,14 -32,14" fill="#4a8c66"/><rect x="-5" y="14" width="10" height="16" fill="#7a5536"/></g><g transform="translate(450,400)"><rect x="-5" y="-4" width="10" height="18" rx="3" fill="#f0e6d2"/><path d="M-16,-2 a16,12 0 0 1 32,0 z" fill="#d2402f"/><circle cx="-6" cy="-8" r="2.5" fill="#fff"/><circle cx="6" cy="-6" r="2.5" fill="#fff"/></g></svg>