<svg xmlns="http://www.w3.org/2000/svg" viewBox="0 0 800 450"><rect width="800" height="450" fill="#3a4a6b"/><rect width="800" height="450" fill="#3a4a6b"/><rect x="520" y="70" width="190" height="170" rx="8" fill="#1d2c4e" stroke="#26365a" stroke-width="10"/><circle cx="570" cy="110" r="3" fill="#fff7cf"/><circle cx="660" cy="150" r="2.5" fill="#fff7cf"/><circle cx="620" cy="100" r="2" fill="#fff7cf"/><line x1="615" y1="70" x2="615" y2="240" stroke="#26365a" stroke-width="8"/><rect x="80" y="290" width="360" height="70" rx="14" fill="#5d6f93"/><rect x="80" y="300" width="360" height="26" rx="13" fill="#88a0c8"/><rect x="92" y="262" width="84" height="40" rx="12" fill="#e9eef7"/><circle cx="150" cy="268" r="24" fill="#f3c39e"/><path d="M126,266 a24,24 0 0 1 40,-16 q-22,-6 -34,10 z" fill="#5b3a23"/><path d="M170,300 q70,-26 250,-6 l0,40 q-160,-16 -250,6 z" fill="#c9556a"/><text x="240" y="220" font-family="Georgia,serif" font-size="40" fill="#aebde0" font-style="italic">z</text><text x="270" y="186" font-family="Georgia,serif" font-size="54" fill="#aebde0" font-style="italic">z</text><text x="310" y="146" font-family="Georgia,serif" font-size="68" fill="#aebde0" font-style="italic">Z</text><g transform="translate(620,340)"><circle cx="0" cy="0" r="56" fill="#e8694a"/><circle cx="0" cy="0" r="44" fill="#fdf6e3"/><line x1="0" y1="0" x2="0" y2="-30" stroke="#3a3a3a" stroke-width="6" stroke-linecap="round"/><line x1="0" y1="0" x2="20" y2="12" stroke="#3a3a3a" stroke-width="6" stroke-linecap="round"/><circle cx="-38" cy="-44" r="11" fill="#e8694a"/><circle cx="38" cy="-44" r="11" fill="#e8694a"/><rect x="-8" y="52" width="6" height="14" fill="#b14e35" transform="rotate(20 -5 59)"/><rect x="2" y="52" width="6" height="14" fill="#b14e35" transform="rotate(-20 5 59)"/><path d="M-66,-58 q-12,-12 -8,-26 M66,-58 q12,-12 8,-26" stroke="#fdf6e3" stroke-width="5" fill="none" stroke-linecap="round"/></g></svg>