<svg xmlns="http://www.w3.org/2000/svg" viewBox="0 0 800 450"><rect width="800" height="450" fill="#1d2c4e"/><rect width="800" height="450" fill="#1d2c4e"/><circle cx="660" cy="90" r="36" fill="#f4eecb"/><circle cx="646" cy="82" r="30" fill="#1d2c4e" opacity=".35"/><circle cx="120" cy="60" r="3" fill="#fff7cf"/><circle cx="220" cy="110" r="2.5" fill="#fff7cf"/><circle cx="330" cy="50" r="3" fill="#fff7cf"/><circle cx="450" cy="90" r="3" fill="#fff7cf"/><circle cx="540" cy="40" r="2.5" fill="#fff7cf"/><circle cx="740" cy="180" r="3" fill="#fff7cf"/><circle cx="60" cy="160" r="2.5" fill="#fff7cf"/><circle cx="390" cy="150" r="2" fill="#fff7cf"/><ellipse cx="400" cy="480" rx="600" ry="150" fill="#27406b"/><ellipse cx="400" cy="530" rx="600" ry="170" fill="#1f3354"/><rect x="630" y="260" width="16" height="80" fill="#142038"/><circle cx="638" cy="240" r="48" fill="#172a47"/><circle cx="606" cy="262" r="32" fill="#172a47"/><circle cx="672" cy="262" r="32" fill="#172a47"/><g transform="translate(300,355)"><polygon points="-130,0 0,-120 130,0" fill="#2e7d54"/><polygon points="-130,0 0,-120 -34,0" fill="#256947"/><polygon points="0,-120 -38,0 38,0" fill="#ffd66b"/><polygon points="0,-120 -20,0 20,0" fill="#ffe9a8"/></g><ellipse cx="300" cy="362" rx="160" ry="12" fill="#16233e"/></svg>