<svg xmlns="http://www.w3.org/2000/svg" viewBox="0 0 800 450"><rect width="800" height="450" fill="#dff0f7"/><rect width="800" height="450" fill="#dff0f7"/><circle cx="660" cy="80" r="44" fill="#bfe0f2"/><circle cx="130" cy="370" r="60" fill="#cfe9f7"/><g transform="translate(330,225)"><path d="M-95,-60 q0,-75 95,-75 q95,0 95,75 q0,52 -28,96 q-14,24 -24,64 q-6,22 -22,22 q-14,0 -18,-22 q-2,-16 -3,-26 q-1,16 -3,26 q-4,22 -18,22 q-16,0 -22,-22 q-10,-40 -24,-64 q-28,-44 -28,-96 z" fill="#ffffff" stroke="#9db8cc" stroke-width="6"/><circle cx="-30" cy="-30" r="6" fill="#41526b"/><circle cx="30" cy="-30" r="6" fill="#41526b"/><path d="M-26,6 q26,24 52,0" stroke="#41526b" stroke-width="6" fill="none" stroke-linecap="round"/><ellipse cx="-48" cy="-64" rx="18" ry="26" fill="#eaf4fa" transform="rotate(-20 -48 -64)"/></g><g transform="translate(570,250) rotate(-35)"><rect x="-16" y="-130" width="32" height="56" rx="10" fill="#e8694a"/><rect x="-14" y="-152" width="6" height="22" rx="3" fill="#ffffff" stroke="#c9d8e2" stroke-width="1"/><rect x="-6" y="-152" width="6" height="22" rx="3" fill="#ffffff" stroke="#c9d8e2" stroke-width="1"/><rect x="2" y="-152" width="6" height="22" rx="3" fill="#ffffff" stroke="#c9d8e2" stroke-width="1"/><rect x="10" y="-152" width="6" height="22" rx="3" fill="#ffffff" stroke="#c9d8e2" stroke-width="1"/><rect x="-12" y="-74" width="24" height="180" rx="12" fill="#3f7fb5"/><rect x="-12" y="20" width="24" height="60" rx="12" fill="#7fb0d8"/></g><path d="M548,116 q14,-18 30,-8 q16,8 6,24" fill="#9fd8c2"/><circle cx="480" cy="120" r="10" fill="#ffffff" opacity=".8"/><circle cx="510" cy="90" r="7" fill="#ffffff" opacity=".8"/><circle cx="455" cy="85" r="5" fill="#ffffff" opacity=".8"/></svg>