<svg xmlns="http://www.w3.org/2000/svg" viewBox="0 0 800 450"><rect width="800" height="450" fill="#bfe0f2"/><rect width="400" height="450" fill="#bfe0f2"/><rect x="400" width="400" height="450" fill="#1d2c4e"/><circle cx="120" cy="90" r="34" fill="#ffd66b"/><circle cx="120" cy="90" r="48" fill="#ffd66b" opacity=".25"/><g transform="translate(220,160) scale(0.7)" fill="#ffffff" opacity="0.9"><ellipse cx="0" cy="0" rx="46" ry="20"/><ellipse cx="-30" cy="8" rx="30" ry="14"/><ellipse cx="32" cy="8" rx="34" ry="15"/></g><circle cx="690" cy="90" r="30" fill="#f4eecb"/><circle cx="679" cy="83" r="24" fill="#1d2c4e" opacity=".4"/><circle cx="580" cy="70" r="3" fill="#fff7cf"/><circle cx="640" cy="160" r="2.5" fill="#fff7cf"/><circle cx="740" cy="200" r="3" fill="#fff7cf"/><circle cx="610" cy="240" r="2" fill="#fff7cf"/><g transform="translate(400,225)"><circle cx="0" cy="0" r="130" fill="#fdf6e3" stroke="#41526b" stroke-width="10"/><line x1="0" y1="-108" x2="0" y2="-118" stroke="#41526b" stroke-width="8"/><line x1="53.99999999999999" y1="-93.53074360871938" x2="58.99999999999999" y2="-102.19099764656377" stroke="#41526b" stroke-width="4"/><line x1="93.53074360871936" y1="-54.000000000000014" x2="102.19099764656376" y2="-59.000000000000014" stroke="#41526b" stroke-width="4"/><line x1="108" y1="-6.6130927153957075e-15" x2="118" y2="-7.225416114969383e-15" stroke="#41526b" stroke-width="8"/><line x1="93.53074360871938" y1="53.99999999999998" x2="102.19099764656377" y2="58.99999999999997" stroke="#41526b" stroke-width="4"/><line x1="53.99999999999999" y1="93.53074360871938" x2="58.99999999999999" y2="102.19099764656377" stroke="#41526b" stroke-width="4"/><line x1="1.3226185430791415e-14" y1="108" x2="1.4450832229938766e-14" y2="118" stroke="#41526b" stroke-width="8"/><line x1="-54.000000000000014" y1="93.53074360871936" x2="-59.000000000000014" y2="102.19099764656376" stroke="#41526b" stroke-width="4"/><line x1="-93.53074360871936" y1="54.00000000000005" x2="-102.19099764656374" y2="59.00000000000005" stroke="#41526b" stroke-width="4"/><line x1="-108" y1="1.983927814618712e-14" x2="-118" y2="2.167624834490815e-14" stroke="#41526b" stroke-width="8"/><line x1="-93.53074360871936" y1="-54.000000000000014" x2="-102.19099764656376" y2="-59.000000000000014" stroke="#41526b" stroke-width="4"/><line x1="-54.00000000000005" y1="-93.53074360871935" x2="-59.00000000000005" y2="-102.19099764656373" stroke="#41526b" stroke-width="4"/><line x1="0" y1="0" x2="0" y2="-72" stroke="#41526b" stroke-width="10" stroke-linecap="round"/><line x1="0" y1="0" x2="52" y2="30" stroke="#41526b" stroke-width="10" stroke-linecap="round"/><circle cx="0" cy="0" r="10" fill="#c9556a"/></g><g fill="none" stroke="#c9556a" stroke-width="12" stroke-linecap="round"><path d="M160,380 q60,46 150,52"/><path d="M640,380 q-60,46 -150,52"/></g><polygon points="316,444 296,416 332,420" fill="#c9556a"/><polygon points="484,444 504,416 468,420" fill="#c9556a"/></svg>