<svg xmlns="http://www.w3.org/2000/svg" viewBox="0 0 800 450"><rect width="800" height="450" fill="#bfe0f2"/><g transform="translate(180,90) scale(1.1)" fill="#ffffff" opacity="0.9"><ellipse cx="0" cy="0" rx="46" ry="20"/><ellipse cx="-30" cy="8" rx="30" ry="14"/><ellipse cx="32" cy="8" rx="34" ry="15"/></g><g transform="translate(560,60) scale(0.8)" fill="#ffffff" opacity="0.9"><ellipse cx="0" cy="0" rx="46" ry="20"/><ellipse cx="-30" cy="8" rx="30" ry="14"/><ellipse cx="32" cy="8" rx="34" ry="15"/></g><g transform="translate(700,150) scale(0.6)" fill="#ffffff" opacity="0.9"><ellipse cx="0" cy="0" rx="46" ry="20"/><ellipse cx="-30" cy="8" rx="30" ry="14"/><ellipse cx="32" cy="8" rx="34" ry="15"/></g><circle cx="80" cy="60" r="28" fill="#ffd66b"/><circle cx="80" cy="60" r="42" fill="#ffd66b" opacity=".25"/><g transform="translate(400,140) scale(1.6)"><path d="M0,0 q-38,-30 -78,-16 q34,4 60,26 q-8,18 -22,30 q22,-8 32,-26 q10,18 32,26 q-14,-12 -22,-30 q26,-22 60,-26 q-40,-14 -78,16" fill="#2d2a26"/></g><g transform="translate(540,220) scale(1.1)"><path d="M0,0 q-38,-30 -78,-16 q34,4 60,26 q-8,18 -22,30 q22,-8 32,-26 q10,18 32,26 q-14,-12 -22,-30 q26,-22 60,-26 q-40,-14 -78,16" fill="#3c3833"/></g><g transform="translate(260,240) scale(.9)"><path d="M0,0 q-38,-30 -78,-16 q34,4 60,26 q-8,18 -22,30 q22,-8 32,-26 q10,18 32,26 q-14,-12 -22,-30 q26,-22 60,-26 q-40,-14 -78,16" fill="#3c3833"/></g><g transform="translate(640,100) scale(.8)"><path d="M0,0 q-38,-30 -78,-16 q34,4 60,26 q-8,18 -22,30 q22,-8 32,-26 q10,18 32,26 q-14,-12 -22,-30 q26,-22 60,-26 q-40,-14 -78,16" fill="#46423c"/></g><g transform="translate(0,360)"><polygon points="40,90 40,30 130,-12 220,30 220,90" fill="#b06a52"/><rect x="240,30" y="0"/><polygon points="240,90 240,16 330,-26 420,16 420,90" fill="#c07b5e"/><polygon points="440,90 440,34 540,-8 640,34 640,90" fill="#a86048"/><rect x="660" y="20" width="120" height="70" fill="#b06a52"/><polygon points="650,20 720,-30 790,20" fill="#8d4f3c"/><rect x="100" y="36" width="24" height="54" fill="#8d4f3c"/><rect x="306" y="22" width="22" height="34" fill="#9a5a44"/></g></svg>