<svg xmlns="http://www.w3.org/2000/svg" viewBox="0 0 800 450"><rect width="800" height="450" fill="#243049"/><rect width="800" height="450" fill="#243049"/><circle cx="120" cy="80" r="26" fill="#f4eecb"/><circle cx="111" cy="74" r="20" fill="#243049" opacity=".4"/><circle cx="220" cy="60" r="3" fill="#fff7cf"/><circle cx="60" cy="180" r="2.5" fill="#fff7cf"/><circle cx="300" cy="130" r="2" fill="#fff7cf"/><circle cx="180" cy="240" r="3" fill="#fff7cf"/><g transform="translate(420,240)"><rect x="-90" y="-160" width="180" height="320" rx="26" fill="#0e1322" stroke="#5d6f93" stroke-width="6"/><rect x="-74" y="-140" width="148" height="270" rx="12" fill="#1c2840"/><circle cx="0" cy="148" r="0" fill="#5d6f93"/><rect x="-62" y="-120" width="124" height="42" rx="10" fill="#2c3c5e"/><circle cx="-42" cy="-99" r="11" fill="#e8694a"/><rect x="-24" y="-106" width="70" height="6" rx="3" fill="#5d6f93"/><rect x="-24" y="-94" width="46" height="6" rx="3" fill="#41526b"/><rect x="-62" y="-64" width="124" height="42" rx="10" fill="#2c3c5e"/><circle cx="-42" cy="-43" r="11" fill="#6fe3c1"/><rect x="-24" y="-50" width="70" height="6" rx="3" fill="#5d6f93"/><rect x="-24" y="-38" width="46" height="6" rx="3" fill="#41526b"/><rect x="-62" y="-8" width="124" height="42" rx="10" fill="#2c3c5e"/><circle cx="-42" cy="13" r="11" fill="#ffd66b"/><rect x="-24" y="6" width="70" height="6" rx="3" fill="#5d6f93"/><rect x="-24" y="18" width="46" height="6" rx="3" fill="#41526b"/></g><g font-family="Georgia,serif" font-weight="bold"><g transform="translate(570,120)"><circle cx="0" cy="0" r="24" fill="#e8694a"/><text x="0" y="9" font-size="26" fill="#243049" text-anchor="middle">3</text></g><g transform="translate(640,210)"><circle cx="0" cy="0" r="24" fill="#6fe3c1"/><text x="0" y="9" font-size="26" fill="#243049" text-anchor="middle">1</text></g><g transform="translate(590,310)"><circle cx="0" cy="0" r="24" fill="#ffd66b"/><text x="0" y="9" font-size="26" fill="#243049" text-anchor="middle">7</text></g><g transform="translate(250,330)"><circle cx="0" cy="0" r="24" fill="#e8694a"/><text x="0" y="9" font-size="26" fill="#243049" text-anchor="middle">2</text></g></g><path d="M540,140 q-18,30 -36,38 M620,232 q-22,18 -44,20 M566,318 q-22,2 -40,-12" stroke="#41526b" stroke-width="3" fill="none" stroke-dasharray="5 6"/></svg>