<svg xmlns="http://www.w3.org/2000/svg" viewBox="0 0 800 450"><rect width="800" height="450" fill="#e8eef2"/><rect width="800" height="450" fill="#e8eef2"/><g transform="translate(400,120)"><rect x="-10" y="0" width="20" height="210" fill="#5e6b7a"/><polygon points="-70,250 70,250 50,210 -50,210" fill="#5e6b7a"/><rect x="-220" y="-10" width="440" height="16" rx="8" fill="#41526b" transform="rotate(-6 0 0)"/><circle cx="0" cy="-16" r="14" fill="#c9556a"/><g transform="translate(-218,-32)"><line x1="0" y1="0" x2="-50" y2="64" stroke="#41526b" stroke-width="5"/><line x1="0" y1="0" x2="50" y2="64" stroke="#41526b" stroke-width="5"/><path d="M-78,64 a78,44 0 0 0 156,0 z" fill="#3f7fb5"/><text x="0" y="100" font-family="Georgia,serif" font-size="32" font-weight="bold" fill="#fff" text-anchor="middle">FÖR</text></g><g transform="translate(218,-76)"><line x1="0" y1="0" x2="-50" y2="64" stroke="#41526b" stroke-width="5"/><line x1="0" y1="0" x2="50" y2="64" stroke="#41526b" stroke-width="5"/><path d="M-78,64 a78,44 0 0 0 156,0 z" fill="#c9556a"/><text x="0" y="100" font-family="Georgia,serif" font-size="28" font-weight="bold" fill="#fff" text-anchor="middle">EMOT</text></g></g><g transform="translate(130,360) rotate(-8)"><rect x="-44" y="-58" width="88" height="116" rx="6" fill="#fff" stroke="#b9c4cc" stroke-width="3"/><line x1="-30" y1="-38" x2="30" y2="-38" stroke="#b9c4cc" stroke-width="5" stroke-linecap="round"/><line x1="-30" y1="-20" x2="30" y2="-20" stroke="#b9c4cc" stroke-width="5" stroke-linecap="round"/><line x1="-30" y1="-2" x2="30" y2="-2" stroke="#b9c4cc" stroke-width="5" stroke-linecap="round"/><line x1="-30" y1="16" x2="30" y2="16" stroke="#b9c4cc" stroke-width="5" stroke-linecap="round"/><line x1="-30" y1="34" x2="30" y2="34" stroke="#b9c4cc" stroke-width="5" stroke-linecap="round"/></g><g transform="translate(670,360) rotate(7)"><rect x="-44" y="-58" width="88" height="116" rx="6" fill="#fff" stroke="#b9c4cc" stroke-width="3"/><line x1="-30" y1="-38" x2="30" y2="-38" stroke="#b9c4cc" stroke-width="5" stroke-linecap="round"/><line x1="-30" y1="-20" x2="30" y2="-20" stroke="#b9c4cc" stroke-width="5" stroke-linecap="round"/><line x1="-30" y1="-2" x2="30" y2="-2" stroke="#b9c4cc" stroke-width="5" stroke-linecap="round"/><line x1="-30" y1="16" x2="30" y2="16" stroke="#b9c4cc" stroke-width="5" stroke-linecap="round"/><line x1="-30" y1="34" x2="30" y2="34" stroke="#b9c4cc" stroke-width="5" stroke-linecap="round"/></g></svg>