<svg xmlns="http://www.w3.org/2000/svg" viewBox="0 0 800 450"><rect width="800" height="450" fill="#dceefb"/><ellipse cx="400" cy="500" rx="600" ry="150" fill="#b8d4e8"/><g transform="translate(400,210)"><circle cx="0" cy="0" r="86" fill="#ffd66b"/><circle cx="0" cy="0" r="86" fill="none" stroke="#e8b73e" stroke-width="5"/><path d="M-26,70 q0,26 26,26 q26,0 26,-26" fill="#ffd66b" stroke="#e8b73e" stroke-width="5"/><rect x="-26" y="92" width="52" height="34" rx="8" fill="#9db8cc"/><line x1="-22" y1="104" x2="22" y2="104" stroke="#7d99ad" stroke-width="5"/><line x1="-22" y1="116" x2="22" y2="116" stroke="#7d99ad" stroke-width="5"/><text x="0" y="32" font-family="Georgia,serif" font-size="104" font-weight="bold" fill="#8a5a14" text-anchor="middle">?</text></g><g stroke="#e8b73e" stroke-width="7" stroke-linecap="round"><line x1="400" y1="74" x2="400" y2="34" transform="rotate(0 400 210)"/><line x1="400" y1="74" x2="400" y2="34" transform="rotate(40 400 210)"/><line x1="400" y1="74" x2="400" y2="34" transform="rotate(-40 400 210)"/><line x1="400" y1="74" x2="400" y2="34" transform="rotate(75 400 210)"/><line x1="400" y1="74" x2="400" y2="34" transform="rotate(-75 400 210)"/></g><text x="160" y="160" font-family="Georgia,serif" font-size="64" font-weight="bold" fill="#7d99ad" transform="rotate(-12 160 160)">?</text><text x="640" y="190" font-family="Georgia,serif" font-size="76" font-weight="bold" fill="#7d99ad" transform="rotate(10 640 190)">?</text><text x="600" y="380" font-family="Georgia,serif" font-size="48" font-weight="bold" fill="#9db8cc" transform="rotate(-8 600 380)">?</text><text x="200" y="380" font-family="Georgia,serif" font-size="48" font-weight="bold" fill="#9db8cc" transform="rotate(8 200 380)">?</text></svg>