<svg xmlns="http://www.w3.org/2000/svg" viewBox="0 0 800 450"><rect width="800" height="450" fill="#dceefb"/><g transform="translate(180,70) scale(1)" fill="#ffffff" opacity="0.9"><ellipse cx="0" cy="0" rx="46" ry="20"/><ellipse cx="-30" cy="8" rx="30" ry="14"/><ellipse cx="32" cy="8" rx="34" ry="15"/></g><g transform="translate(560,100) scale(0.7)" fill="#ffffff" opacity="0.9"><ellipse cx="0" cy="0" rx="46" ry="20"/><ellipse cx="-30" cy="8" rx="30" ry="14"/><ellipse cx="32" cy="8" rx="34" ry="15"/></g><circle cx="710" cy="70" r="28" fill="#ffd66b"/><circle cx="710" cy="70" r="42" fill="#ffd66b" opacity=".25"/><ellipse cx="400" cy="480" rx="600" ry="150" fill="#a8d88f"/><path d="M380,450 q0,-90 -130,-160 M420,450 q0,-90 130,-160" stroke="#d9c08a" stroke-width="56" fill="none"/><path d="M400,450 l0,-110" stroke="#d9c08a" stroke-width="56"/><g transform="translate(400,210)"><rect x="-9" y="0" width="18" height="130" fill="#7a5536"/><g transform="translate(0,-4)"><polygon points="-10,-16 96,-16 122,0 96,16 -10,16" fill="#caa05a"/></g><g transform="translate(0,-50)"><polygon points="10,-16 -96,-16 -122,0 -96,16 10,16" fill="#b3854f"/></g><g transform="translate(0,-96)"><polygon points="-10,-16 84,-16 110,0 84,16 -10,16" fill="#caa05a"/></g><text x="44" y="-44" font-family="Georgia,serif" font-size="26" font-weight="bold" fill="#5e4322" text-anchor="middle">?</text><text x="-44" y="2" font-family="Georgia,serif" font-size="26" font-weight="bold" fill="#5e4322" text-anchor="middle">?</text><text x="40" y="-90" font-family="Georgia,serif" font-size="26" font-weight="bold" fill="#5e4322" text-anchor="middle">?</text></g><g transform="translate(260,366)"><g transform="translate(0,0) scale(1.3)"><circle cx="0" cy="-46" r="14" fill="#f3c39e"/><path d="M-14,-50 a14,14 0 0 1 28,0 l0,-6 a14,9 0 0 0 -28,0 z" fill="#5b3a23"/><rect x="-13" y="-32" width="26" height="34" rx="9" fill="#3f7fb5"/><rect x="-12" y="0" width="9" height="26" rx="4" fill="#41526b"/><rect x="3" y="0" width="9" height="26" rx="4" fill="#41526b"/></g><rect x="-26" y="-72" width="20" height="34" rx="8" fill="#c9556a"/></g></svg>